G75*
%MOIN*%
%OFA0B0*%
%FSLAX25Y25*%
%IPPOS*%
%LPD*%
%AMOC8*
5,1,8,0,0,1.08239X$1,22.5*
%
%ADD10C,0.07400*%
%ADD11C,0.04800*%
%ADD12R,0.03000X0.03000*%
%ADD13C,0.04800*%
%ADD14C,0.06000*%
%ADD15C,0.01000*%
%ADD16C,0.01600*%
D10*
X0254000Y0071000D03*
X0254000Y0081000D03*
D11*
X0236000Y0116500D03*
X0226000Y0116500D03*
X0201000Y0116500D03*
X0191000Y0116500D03*
X0166000Y0116500D03*
X0156000Y0116500D03*
X0131000Y0116561D03*
X0121000Y0116439D03*
X0096000Y0116500D03*
X0086000Y0116500D03*
D12*
X0088000Y0105000D03*
X0094000Y0105000D03*
X0123000Y0105000D03*
X0129000Y0105000D03*
X0158000Y0105000D03*
X0164000Y0105000D03*
X0193000Y0105000D03*
X0199000Y0105000D03*
X0228000Y0105000D03*
X0234000Y0105000D03*
X0214000Y0079000D03*
X0214000Y0073000D03*
D13*
X0231600Y0076000D02*
X0236400Y0076000D01*
X0236400Y0066000D02*
X0231600Y0066000D01*
X0231600Y0086000D02*
X0236400Y0086000D01*
D14*
X0186000Y0090000D03*
X0176000Y0090000D03*
X0166000Y0090000D03*
X0156000Y0090000D03*
X0146000Y0090000D03*
X0136000Y0090000D03*
X0136000Y0074000D03*
X0146000Y0074000D03*
D15*
X0136000Y0074000D02*
X0120384Y0090367D01*
X0134875Y0105000D01*
X0157250Y0105000D01*
X0161000Y0101250D01*
X0190000Y0101250D01*
X0193000Y0105000D01*
X0199000Y0105000D02*
X0199000Y0114846D01*
X0201000Y0116500D01*
X0206250Y0105000D02*
X0202500Y0101250D01*
X0190000Y0101250D01*
X0206250Y0105000D02*
X0227250Y0105000D01*
X0240375Y0091875D01*
X0240375Y0074375D01*
X0235000Y0067500D01*
X0234000Y0066000D01*
X0215000Y0073125D02*
X0214000Y0073000D01*
X0202846Y0073000D01*
X0186000Y0090000D01*
X0214000Y0079000D02*
X0231654Y0079000D01*
X0234000Y0076000D01*
X0215000Y0078750D02*
X0214000Y0079000D01*
X0234000Y0105000D02*
X0234000Y0114846D01*
X0236000Y0116500D01*
X0166000Y0116500D02*
X0164000Y0114846D01*
X0164000Y0105000D01*
X0131000Y0116561D02*
X0129000Y0114908D01*
X0129000Y0105000D01*
X0123000Y0105000D02*
X0119375Y0101250D01*
X0110000Y0101250D01*
X0120384Y0090367D01*
X0110000Y0101250D02*
X0091500Y0101250D01*
X0088000Y0105000D01*
X0094000Y0105000D02*
X0094000Y0114846D01*
X0096000Y0116500D01*
D16*
X0075081Y0037426D02*
X0071375Y0038419D01*
X0068051Y0040338D01*
X0065338Y0043051D01*
X0063419Y0046375D01*
X0062426Y0050081D01*
X0062300Y0052000D01*
X0062300Y0094000D01*
X0062426Y0095919D01*
X0063419Y0099625D01*
X0065338Y0102949D01*
X0068051Y0105662D01*
X0071375Y0107581D01*
X0075081Y0108574D01*
X0077000Y0108700D01*
X0081953Y0108700D01*
X0083300Y0110047D01*
X0083300Y0113826D01*
X0083847Y0113279D01*
X0085244Y0112700D01*
X0086756Y0112700D01*
X0088153Y0113279D01*
X0089221Y0114347D01*
X0089800Y0115744D01*
X0089800Y0117256D01*
X0089221Y0118653D01*
X0088153Y0119721D01*
X0093847Y0119721D01*
X0092779Y0118653D01*
X0092200Y0117256D01*
X0092200Y0115824D01*
X0092183Y0115809D01*
X0092173Y0115706D01*
X0092100Y0115633D01*
X0092100Y0114936D01*
X0092034Y0114242D01*
X0092100Y0114163D01*
X0092100Y0107900D01*
X0091920Y0107900D01*
X0091185Y0107165D01*
X0091177Y0107195D01*
X0090940Y0107605D01*
X0090605Y0107940D01*
X0090195Y0108177D01*
X0089737Y0108300D01*
X0088000Y0108300D01*
X0088000Y0105000D01*
X0088000Y0105000D01*
X0088000Y0101700D01*
X0089737Y0101700D01*
X0090195Y0101823D01*
X0090605Y0102060D01*
X0090940Y0102395D01*
X0091177Y0102805D01*
X0091185Y0102835D01*
X0091920Y0102100D01*
X0096080Y0102100D01*
X0096900Y0102920D01*
X0096900Y0107080D01*
X0096080Y0107900D01*
X0095900Y0107900D01*
X0095900Y0112700D01*
X0096756Y0112700D01*
X0098153Y0113279D01*
X0099221Y0114347D01*
X0099800Y0115744D01*
X0099800Y0117256D01*
X0099221Y0118653D01*
X0098153Y0119721D01*
X0104293Y0119721D01*
X0104047Y0119475D02*
X0103247Y0117545D01*
X0103247Y0115455D01*
X0104047Y0113525D01*
X0105525Y0112047D01*
X0107455Y0111247D01*
X0109545Y0111247D01*
X0111475Y0112047D01*
X0112953Y0113525D01*
X0113753Y0115455D01*
X0113753Y0117545D01*
X0112953Y0119475D01*
X0111475Y0120953D01*
X0109545Y0121753D01*
X0107455Y0121753D01*
X0105525Y0120953D01*
X0104047Y0119475D01*
X0103487Y0118123D02*
X0099441Y0118123D01*
X0098153Y0119721D02*
X0096756Y0120300D01*
X0095244Y0120300D01*
X0093847Y0119721D01*
X0092559Y0118123D02*
X0089441Y0118123D01*
X0088153Y0119721D02*
X0086756Y0120300D01*
X0085244Y0120300D01*
X0084248Y0119887D01*
X0084343Y0120243D01*
X0086131Y0123340D01*
X0088660Y0125869D01*
X0091757Y0127657D01*
X0095212Y0128583D01*
X0097000Y0128700D01*
X0225000Y0128700D01*
X0226788Y0128583D01*
X0230243Y0127657D01*
X0233340Y0125869D01*
X0235869Y0123340D01*
X0237657Y0120243D01*
X0237752Y0119887D01*
X0236756Y0120300D01*
X0235244Y0120300D01*
X0233847Y0119721D01*
X0228153Y0119721D01*
X0226756Y0120300D01*
X0225244Y0120300D01*
X0223847Y0119721D01*
X0217707Y0119721D01*
X0217953Y0119475D02*
X0216475Y0120953D01*
X0214545Y0121753D01*
X0212455Y0121753D01*
X0210525Y0120953D01*
X0209047Y0119475D01*
X0208247Y0117545D01*
X0208247Y0115455D01*
X0209047Y0113525D01*
X0210525Y0112047D01*
X0212455Y0111247D01*
X0214545Y0111247D01*
X0216475Y0112047D01*
X0217953Y0113525D01*
X0218753Y0115455D01*
X0218753Y0117545D01*
X0217953Y0119475D01*
X0218513Y0118123D02*
X0222559Y0118123D01*
X0222779Y0118653D02*
X0222200Y0117256D01*
X0222200Y0115744D01*
X0222779Y0114347D01*
X0223847Y0113279D01*
X0225244Y0112700D01*
X0226756Y0112700D01*
X0228153Y0113279D01*
X0229221Y0114347D01*
X0229800Y0115744D01*
X0229800Y0117256D01*
X0229221Y0118653D01*
X0228153Y0119721D01*
X0229441Y0118123D02*
X0232559Y0118123D01*
X0232779Y0118653D02*
X0232200Y0117256D01*
X0232200Y0115824D01*
X0232183Y0115809D01*
X0232173Y0115706D01*
X0232100Y0115633D01*
X0232100Y0114936D01*
X0232034Y0114242D01*
X0232100Y0114163D01*
X0232100Y0107900D01*
X0231920Y0107900D01*
X0231185Y0107165D01*
X0231177Y0107195D01*
X0230940Y0107605D01*
X0230605Y0107940D01*
X0230195Y0108177D01*
X0229737Y0108300D01*
X0228000Y0108300D01*
X0228000Y0105000D01*
X0228000Y0105000D01*
X0228000Y0101700D01*
X0229737Y0101700D01*
X0230195Y0101823D01*
X0230605Y0102060D01*
X0230940Y0102395D01*
X0231177Y0102805D01*
X0231185Y0102835D01*
X0231920Y0102100D01*
X0236080Y0102100D01*
X0236900Y0102920D01*
X0236900Y0107080D01*
X0236080Y0107900D01*
X0235900Y0107900D01*
X0235900Y0112700D01*
X0236756Y0112700D01*
X0238153Y0113279D01*
X0238700Y0113826D01*
X0238700Y0110047D01*
X0240047Y0108700D01*
X0245000Y0108700D01*
X0246919Y0108574D01*
X0250625Y0107581D01*
X0253949Y0105662D01*
X0256662Y0102949D01*
X0258581Y0099625D01*
X0259574Y0095919D01*
X0259700Y0094000D01*
X0259700Y0052000D01*
X0259574Y0050081D01*
X0258581Y0046375D01*
X0256662Y0043051D01*
X0253949Y0040338D01*
X0250625Y0038419D01*
X0246919Y0037426D01*
X0245000Y0037300D01*
X0077000Y0037300D01*
X0075081Y0037426D01*
X0072203Y0038197D02*
X0249797Y0038197D01*
X0248161Y0039796D02*
X0253010Y0039796D01*
X0255005Y0041394D02*
X0250823Y0041394D01*
X0251453Y0042025D02*
X0249975Y0040547D01*
X0248045Y0039747D01*
X0245955Y0039747D01*
X0244025Y0040547D01*
X0242547Y0042025D01*
X0241747Y0043955D01*
X0241747Y0046045D01*
X0242547Y0047975D01*
X0244025Y0049453D01*
X0245955Y0050253D01*
X0248045Y0050253D01*
X0249975Y0049453D01*
X0251453Y0047975D01*
X0252253Y0046045D01*
X0252253Y0043955D01*
X0251453Y0042025D01*
X0251854Y0042993D02*
X0256604Y0042993D01*
X0257551Y0044591D02*
X0252253Y0044591D01*
X0252193Y0046190D02*
X0258474Y0046190D01*
X0258960Y0047788D02*
X0251531Y0047788D01*
X0250042Y0049387D02*
X0259388Y0049387D01*
X0259633Y0050985D02*
X0062367Y0050985D01*
X0062300Y0052584D02*
X0259700Y0052584D01*
X0259700Y0054182D02*
X0062300Y0054182D01*
X0062300Y0055781D02*
X0259700Y0055781D01*
X0259700Y0057379D02*
X0062300Y0057379D01*
X0062300Y0058978D02*
X0259700Y0058978D01*
X0259700Y0060576D02*
X0062300Y0060576D01*
X0062300Y0062175D02*
X0229856Y0062175D01*
X0229988Y0062108D02*
X0230616Y0061903D01*
X0231269Y0061800D01*
X0234000Y0061800D01*
X0236731Y0061800D01*
X0237384Y0061903D01*
X0238012Y0062108D01*
X0238601Y0062408D01*
X0239136Y0062796D01*
X0239604Y0063264D01*
X0239992Y0063799D01*
X0240292Y0064388D01*
X0240497Y0065016D01*
X0240600Y0065669D01*
X0240600Y0066000D01*
X0240600Y0066331D01*
X0240497Y0066984D01*
X0240292Y0067612D01*
X0239992Y0068201D01*
X0239604Y0068736D01*
X0239136Y0069204D01*
X0238601Y0069592D01*
X0238012Y0069892D01*
X0237384Y0070097D01*
X0236731Y0070200D01*
X0234000Y0070200D01*
X0234000Y0066000D01*
X0234000Y0066000D01*
X0240600Y0066000D01*
X0234000Y0066000D01*
X0234000Y0066000D01*
X0234000Y0070200D01*
X0231269Y0070200D01*
X0230616Y0070097D01*
X0229988Y0069892D01*
X0229399Y0069592D01*
X0228864Y0069204D01*
X0228396Y0068736D01*
X0228008Y0068201D01*
X0227708Y0067612D01*
X0227503Y0066984D01*
X0227400Y0066331D01*
X0227400Y0066000D01*
X0234000Y0066000D01*
X0234000Y0061800D01*
X0234000Y0066000D01*
X0234000Y0066000D01*
X0234000Y0066000D01*
X0227400Y0066000D01*
X0227400Y0065669D01*
X0227503Y0065016D01*
X0227708Y0064388D01*
X0228008Y0063799D01*
X0228396Y0063264D01*
X0228864Y0062796D01*
X0229399Y0062408D01*
X0229988Y0062108D01*
X0228026Y0063773D02*
X0062300Y0063773D01*
X0062300Y0065372D02*
X0227447Y0065372D01*
X0227501Y0066970D02*
X0062300Y0066970D01*
X0062300Y0068569D02*
X0228275Y0068569D01*
X0231063Y0070167D02*
X0216147Y0070167D01*
X0216080Y0070100D02*
X0216900Y0070920D01*
X0216900Y0072473D01*
X0216983Y0072580D01*
X0216900Y0073243D01*
X0216900Y0075080D01*
X0216080Y0075900D01*
X0211920Y0075900D01*
X0211100Y0075080D01*
X0211100Y0074900D01*
X0203639Y0074900D01*
X0190147Y0088514D01*
X0190400Y0089125D01*
X0190400Y0090875D01*
X0189730Y0092492D01*
X0188492Y0093730D01*
X0186875Y0094400D01*
X0185125Y0094400D01*
X0183508Y0093730D01*
X0182270Y0092492D01*
X0181600Y0090875D01*
X0181600Y0089125D01*
X0182270Y0087508D01*
X0183508Y0086270D01*
X0185125Y0085600D01*
X0186875Y0085600D01*
X0187450Y0085838D01*
X0200946Y0072218D01*
X0200946Y0072213D01*
X0201500Y0071659D01*
X0202051Y0071104D01*
X0202056Y0071104D01*
X0202059Y0071100D01*
X0202842Y0071100D01*
X0203625Y0071096D01*
X0203628Y0071100D01*
X0211100Y0071100D01*
X0211100Y0070920D01*
X0211920Y0070100D01*
X0216080Y0070100D01*
X0216900Y0071766D02*
X0248900Y0071766D01*
X0248900Y0072014D02*
X0248900Y0069986D01*
X0249676Y0068111D01*
X0251111Y0066676D01*
X0252986Y0065900D01*
X0255014Y0065900D01*
X0256889Y0066676D01*
X0258324Y0068111D01*
X0259100Y0069986D01*
X0259100Y0072014D01*
X0258324Y0073889D01*
X0256889Y0075324D01*
X0255256Y0076000D01*
X0256889Y0076676D01*
X0258324Y0078111D01*
X0259100Y0079986D01*
X0259100Y0082014D01*
X0258324Y0083889D01*
X0256889Y0085324D01*
X0255014Y0086100D01*
X0252986Y0086100D01*
X0251111Y0085324D01*
X0249676Y0083889D01*
X0248900Y0082014D01*
X0248900Y0079986D01*
X0249676Y0078111D01*
X0251111Y0076676D01*
X0252744Y0076000D01*
X0251111Y0075324D01*
X0249676Y0073889D01*
X0248900Y0072014D01*
X0249459Y0073364D02*
X0239138Y0073364D01*
X0239621Y0073847D02*
X0240200Y0075244D01*
X0240200Y0076756D01*
X0239621Y0078153D01*
X0238553Y0079221D01*
X0237156Y0079800D01*
X0233541Y0079800D01*
X0233079Y0080262D01*
X0232665Y0080790D01*
X0232534Y0080806D01*
X0232441Y0080900D01*
X0231769Y0080900D01*
X0231103Y0080981D01*
X0230999Y0080900D01*
X0216900Y0080900D01*
X0216900Y0081080D01*
X0216080Y0081900D01*
X0211920Y0081900D01*
X0211100Y0081080D01*
X0211100Y0076920D01*
X0211920Y0076100D01*
X0216080Y0076100D01*
X0216900Y0076920D01*
X0216900Y0077100D01*
X0227943Y0077100D01*
X0227800Y0076756D01*
X0227800Y0075244D01*
X0228379Y0073847D01*
X0229447Y0072779D01*
X0230844Y0072200D01*
X0237156Y0072200D01*
X0238553Y0072779D01*
X0239621Y0073847D01*
X0240083Y0074963D02*
X0250750Y0074963D01*
X0251389Y0076561D02*
X0240200Y0076561D01*
X0239614Y0078160D02*
X0249656Y0078160D01*
X0248994Y0079758D02*
X0237256Y0079758D01*
X0237156Y0082200D02*
X0230844Y0082200D01*
X0229447Y0082779D01*
X0228379Y0083847D01*
X0227800Y0085244D01*
X0227800Y0086756D01*
X0228379Y0088153D01*
X0229447Y0089221D01*
X0230844Y0089800D01*
X0237156Y0089800D01*
X0238553Y0089221D01*
X0239621Y0088153D01*
X0240200Y0086756D01*
X0240200Y0085244D01*
X0239621Y0083847D01*
X0238553Y0082779D01*
X0237156Y0082200D01*
X0238729Y0082955D02*
X0249290Y0082955D01*
X0248900Y0081357D02*
X0216623Y0081357D01*
X0211377Y0081357D02*
X0197240Y0081357D01*
X0195656Y0082955D02*
X0229271Y0082955D01*
X0228086Y0084554D02*
X0194072Y0084554D01*
X0192488Y0086152D02*
X0227800Y0086152D01*
X0228212Y0087751D02*
X0190904Y0087751D01*
X0190400Y0089349D02*
X0229756Y0089349D01*
X0238244Y0089349D02*
X0259700Y0089349D01*
X0259700Y0087751D02*
X0239788Y0087751D01*
X0240200Y0086152D02*
X0259700Y0086152D01*
X0259700Y0084554D02*
X0257659Y0084554D01*
X0258710Y0082955D02*
X0259700Y0082955D01*
X0259700Y0081357D02*
X0259100Y0081357D01*
X0259006Y0079758D02*
X0259700Y0079758D01*
X0259700Y0078160D02*
X0258344Y0078160D01*
X0259700Y0076561D02*
X0256611Y0076561D01*
X0257250Y0074963D02*
X0259700Y0074963D01*
X0259700Y0073364D02*
X0258541Y0073364D01*
X0259100Y0071766D02*
X0259700Y0071766D01*
X0259700Y0070167D02*
X0259100Y0070167D01*
X0258513Y0068569D02*
X0259700Y0068569D01*
X0259700Y0066970D02*
X0257183Y0066970D01*
X0259700Y0065372D02*
X0240553Y0065372D01*
X0240499Y0066970D02*
X0250817Y0066970D01*
X0249487Y0068569D02*
X0239725Y0068569D01*
X0236937Y0070167D02*
X0248900Y0070167D01*
X0239974Y0063773D02*
X0259700Y0063773D01*
X0259700Y0062175D02*
X0238144Y0062175D01*
X0234000Y0062175D02*
X0234000Y0062175D01*
X0234000Y0063773D02*
X0234000Y0063773D01*
X0234000Y0065372D02*
X0234000Y0065372D01*
X0234000Y0066970D02*
X0234000Y0066970D01*
X0234000Y0068569D02*
X0234000Y0068569D01*
X0234000Y0070167D02*
X0234000Y0070167D01*
X0228862Y0073364D02*
X0216900Y0073364D01*
X0216900Y0074963D02*
X0227917Y0074963D01*
X0227800Y0076561D02*
X0216541Y0076561D01*
X0211459Y0076561D02*
X0201992Y0076561D01*
X0203576Y0074963D02*
X0211100Y0074963D01*
X0211100Y0078160D02*
X0200408Y0078160D01*
X0198824Y0079758D02*
X0211100Y0079758D01*
X0198226Y0074963D02*
X0150364Y0074963D01*
X0150400Y0074875D02*
X0149730Y0076492D01*
X0148492Y0077730D01*
X0146875Y0078400D01*
X0145125Y0078400D01*
X0143508Y0077730D01*
X0142270Y0076492D01*
X0141600Y0074875D01*
X0141600Y0073125D01*
X0142270Y0071508D01*
X0143508Y0070270D01*
X0145125Y0069600D01*
X0146875Y0069600D01*
X0148492Y0070270D01*
X0149730Y0071508D01*
X0150400Y0073125D01*
X0150400Y0074875D01*
X0150400Y0073364D02*
X0199811Y0073364D01*
X0201394Y0071766D02*
X0149837Y0071766D01*
X0148245Y0070167D02*
X0211853Y0070167D01*
X0196642Y0076561D02*
X0149661Y0076561D01*
X0147455Y0078160D02*
X0195058Y0078160D01*
X0193474Y0079758D02*
X0062300Y0079758D01*
X0062300Y0078160D02*
X0133591Y0078160D01*
X0133484Y0078105D02*
X0132873Y0077661D01*
X0132339Y0077127D01*
X0131895Y0076516D01*
X0131552Y0075843D01*
X0131318Y0075124D01*
X0131200Y0074378D01*
X0131200Y0074200D01*
X0135800Y0074200D01*
X0135800Y0078800D01*
X0135622Y0078800D01*
X0134876Y0078682D01*
X0134157Y0078448D01*
X0133484Y0078105D01*
X0131928Y0076561D02*
X0062300Y0076561D01*
X0062300Y0074963D02*
X0131293Y0074963D01*
X0131200Y0073800D02*
X0131200Y0073622D01*
X0131318Y0072876D01*
X0131552Y0072157D01*
X0131895Y0071484D01*
X0132339Y0070873D01*
X0132873Y0070339D01*
X0133484Y0069895D01*
X0134157Y0069552D01*
X0134876Y0069318D01*
X0135622Y0069200D01*
X0135800Y0069200D01*
X0135800Y0073800D01*
X0131200Y0073800D01*
X0131241Y0073364D02*
X0062300Y0073364D01*
X0062300Y0071766D02*
X0131751Y0071766D01*
X0133109Y0070167D02*
X0062300Y0070167D01*
X0062300Y0081357D02*
X0191890Y0081357D01*
X0190306Y0082955D02*
X0062300Y0082955D01*
X0062300Y0084554D02*
X0188722Y0084554D01*
X0183791Y0086152D02*
X0178209Y0086152D01*
X0178492Y0086270D02*
X0179730Y0087508D01*
X0180400Y0089125D01*
X0180400Y0090875D01*
X0179730Y0092492D01*
X0178492Y0093730D01*
X0176875Y0094400D01*
X0175125Y0094400D01*
X0173508Y0093730D01*
X0172270Y0092492D01*
X0171600Y0090875D01*
X0171600Y0089125D01*
X0172270Y0087508D01*
X0173508Y0086270D01*
X0175125Y0085600D01*
X0176875Y0085600D01*
X0178492Y0086270D01*
X0179831Y0087751D02*
X0182169Y0087751D01*
X0181600Y0089349D02*
X0180400Y0089349D01*
X0180370Y0090948D02*
X0181630Y0090948D01*
X0182324Y0092546D02*
X0179676Y0092546D01*
X0177491Y0094145D02*
X0184509Y0094145D01*
X0187491Y0094145D02*
X0259691Y0094145D01*
X0259700Y0092546D02*
X0189676Y0092546D01*
X0190370Y0090948D02*
X0259700Y0090948D01*
X0259586Y0095743D02*
X0062414Y0095743D01*
X0062309Y0094145D02*
X0134509Y0094145D01*
X0135125Y0094400D02*
X0133508Y0093730D01*
X0132270Y0092492D01*
X0131600Y0090875D01*
X0131600Y0089125D01*
X0132270Y0087508D01*
X0133508Y0086270D01*
X0135125Y0085600D01*
X0136875Y0085600D01*
X0138492Y0086270D01*
X0139730Y0087508D01*
X0140400Y0089125D01*
X0140400Y0090875D01*
X0139730Y0092492D01*
X0138492Y0093730D01*
X0136875Y0094400D01*
X0135125Y0094400D01*
X0137491Y0094145D02*
X0144509Y0094145D01*
X0145125Y0094400D02*
X0143508Y0093730D01*
X0142270Y0092492D01*
X0141600Y0090875D01*
X0141600Y0089125D01*
X0142270Y0087508D01*
X0143508Y0086270D01*
X0145125Y0085600D01*
X0146875Y0085600D01*
X0148492Y0086270D01*
X0149730Y0087508D01*
X0150400Y0089125D01*
X0150400Y0090875D01*
X0149730Y0092492D01*
X0148492Y0093730D01*
X0146875Y0094400D01*
X0145125Y0094400D01*
X0147491Y0094145D02*
X0154509Y0094145D01*
X0155125Y0094400D02*
X0153508Y0093730D01*
X0152270Y0092492D01*
X0151600Y0090875D01*
X0151600Y0089125D01*
X0152270Y0087508D01*
X0153508Y0086270D01*
X0155125Y0085600D01*
X0156875Y0085600D01*
X0158492Y0086270D01*
X0159730Y0087508D01*
X0160400Y0089125D01*
X0160400Y0090875D01*
X0159730Y0092492D01*
X0158492Y0093730D01*
X0156875Y0094400D01*
X0155125Y0094400D01*
X0157491Y0094145D02*
X0164509Y0094145D01*
X0165125Y0094400D02*
X0163508Y0093730D01*
X0162270Y0092492D01*
X0161600Y0090875D01*
X0161600Y0089125D01*
X0162270Y0087508D01*
X0163508Y0086270D01*
X0165125Y0085600D01*
X0166875Y0085600D01*
X0168492Y0086270D01*
X0169730Y0087508D01*
X0170400Y0089125D01*
X0170400Y0090875D01*
X0169730Y0092492D01*
X0168492Y0093730D01*
X0166875Y0094400D01*
X0165125Y0094400D01*
X0167491Y0094145D02*
X0174509Y0094145D01*
X0172324Y0092546D02*
X0169676Y0092546D01*
X0170370Y0090948D02*
X0171630Y0090948D01*
X0171600Y0089349D02*
X0170400Y0089349D01*
X0169831Y0087751D02*
X0172169Y0087751D01*
X0173791Y0086152D02*
X0168209Y0086152D01*
X0163791Y0086152D02*
X0158209Y0086152D01*
X0159831Y0087751D02*
X0162169Y0087751D01*
X0161600Y0089349D02*
X0160400Y0089349D01*
X0160370Y0090948D02*
X0161630Y0090948D01*
X0162324Y0092546D02*
X0159676Y0092546D01*
X0152324Y0092546D02*
X0149676Y0092546D01*
X0150370Y0090948D02*
X0151630Y0090948D01*
X0151600Y0089349D02*
X0150400Y0089349D01*
X0149831Y0087751D02*
X0152169Y0087751D01*
X0153791Y0086152D02*
X0148209Y0086152D01*
X0143791Y0086152D02*
X0138209Y0086152D01*
X0139831Y0087751D02*
X0142169Y0087751D01*
X0141600Y0089349D02*
X0140400Y0089349D01*
X0140370Y0090948D02*
X0141630Y0090948D01*
X0142324Y0092546D02*
X0139676Y0092546D01*
X0132324Y0092546D02*
X0062300Y0092546D01*
X0062300Y0090948D02*
X0131630Y0090948D01*
X0131600Y0089349D02*
X0062300Y0089349D01*
X0062300Y0087751D02*
X0132169Y0087751D01*
X0133791Y0086152D02*
X0062300Y0086152D01*
X0062807Y0097342D02*
X0259193Y0097342D01*
X0258765Y0098940D02*
X0063235Y0098940D01*
X0063946Y0100539D02*
X0258054Y0100539D01*
X0257131Y0102137D02*
X0236117Y0102137D01*
X0236900Y0103736D02*
X0255875Y0103736D01*
X0254277Y0105334D02*
X0236900Y0105334D01*
X0236900Y0106933D02*
X0251748Y0106933D01*
X0247078Y0108532D02*
X0235900Y0108532D01*
X0235900Y0110130D02*
X0238700Y0110130D01*
X0238700Y0111729D02*
X0235900Y0111729D01*
X0238201Y0113327D02*
X0238700Y0113327D01*
X0232100Y0113327D02*
X0228201Y0113327D01*
X0229461Y0114926D02*
X0232099Y0114926D01*
X0232200Y0116524D02*
X0229800Y0116524D01*
X0232779Y0118653D02*
X0233847Y0119721D01*
X0237035Y0121320D02*
X0215591Y0121320D01*
X0211409Y0121320D02*
X0110591Y0121320D01*
X0112707Y0119721D02*
X0118994Y0119721D01*
X0118848Y0119660D02*
X0117779Y0118591D01*
X0117200Y0117195D01*
X0117200Y0115683D01*
X0117779Y0114286D01*
X0118848Y0113217D01*
X0120244Y0112639D01*
X0121756Y0112639D01*
X0123153Y0113217D01*
X0124222Y0114286D01*
X0124800Y0115683D01*
X0124800Y0117195D01*
X0124222Y0118591D01*
X0123153Y0119660D01*
X0121756Y0120239D01*
X0120244Y0120239D01*
X0118848Y0119660D01*
X0117585Y0118123D02*
X0113513Y0118123D01*
X0113753Y0116524D02*
X0117200Y0116524D01*
X0117514Y0114926D02*
X0113533Y0114926D01*
X0112756Y0113327D02*
X0118738Y0113327D01*
X0123263Y0113327D02*
X0127100Y0113327D01*
X0127100Y0114224D02*
X0127100Y0107900D01*
X0126920Y0107900D01*
X0126185Y0107165D01*
X0126177Y0107195D01*
X0125940Y0107605D01*
X0125605Y0107940D01*
X0125195Y0108177D01*
X0124737Y0108300D01*
X0123000Y0108300D01*
X0123000Y0105000D01*
X0123000Y0105000D01*
X0123000Y0101700D01*
X0124737Y0101700D01*
X0125195Y0101823D01*
X0125605Y0102060D01*
X0125940Y0102395D01*
X0126177Y0102805D01*
X0126185Y0102835D01*
X0126920Y0102100D01*
X0131080Y0102100D01*
X0131900Y0102920D01*
X0131900Y0107080D01*
X0131080Y0107900D01*
X0130900Y0107900D01*
X0130900Y0112761D01*
X0131755Y0112761D01*
X0133152Y0113340D01*
X0134221Y0114409D01*
X0134800Y0115805D01*
X0134800Y0117317D01*
X0134221Y0118714D01*
X0133152Y0119783D01*
X0131755Y0120361D01*
X0130244Y0120361D01*
X0128847Y0119783D01*
X0127778Y0118714D01*
X0127200Y0117317D01*
X0127200Y0115885D01*
X0127183Y0115871D01*
X0127173Y0115768D01*
X0127100Y0115695D01*
X0127100Y0114998D01*
X0127034Y0114304D01*
X0127100Y0114224D01*
X0127093Y0114926D02*
X0124487Y0114926D01*
X0124800Y0116524D02*
X0127200Y0116524D01*
X0127533Y0118123D02*
X0124416Y0118123D01*
X0123006Y0119721D02*
X0128786Y0119721D01*
X0133214Y0119721D02*
X0153847Y0119721D01*
X0152779Y0118653D01*
X0152200Y0117256D01*
X0152200Y0115744D01*
X0152779Y0114347D01*
X0153847Y0113279D01*
X0155244Y0112700D01*
X0156756Y0112700D01*
X0158153Y0113279D01*
X0159221Y0114347D01*
X0159800Y0115744D01*
X0159800Y0117256D01*
X0159221Y0118653D01*
X0158153Y0119721D01*
X0163847Y0119721D01*
X0162779Y0118653D01*
X0162200Y0117256D01*
X0162200Y0115824D01*
X0162183Y0115809D01*
X0162173Y0115706D01*
X0162100Y0115633D01*
X0162100Y0114936D01*
X0162034Y0114242D01*
X0162100Y0114163D01*
X0162100Y0107900D01*
X0161920Y0107900D01*
X0161185Y0107165D01*
X0161177Y0107195D01*
X0160940Y0107605D01*
X0160605Y0107940D01*
X0160195Y0108177D01*
X0159737Y0108300D01*
X0158000Y0108300D01*
X0158000Y0105000D01*
X0158000Y0105000D01*
X0158000Y0101700D01*
X0159737Y0101700D01*
X0160195Y0101823D01*
X0160605Y0102060D01*
X0160940Y0102395D01*
X0161177Y0102805D01*
X0161185Y0102835D01*
X0161920Y0102100D01*
X0166080Y0102100D01*
X0166900Y0102920D01*
X0166900Y0107080D01*
X0166080Y0107900D01*
X0165900Y0107900D01*
X0165900Y0112700D01*
X0166756Y0112700D01*
X0168153Y0113279D01*
X0169221Y0114347D01*
X0169800Y0115744D01*
X0169800Y0117256D01*
X0169221Y0118653D01*
X0168153Y0119721D01*
X0188847Y0119721D01*
X0187779Y0118653D01*
X0187200Y0117256D01*
X0187200Y0115744D01*
X0187779Y0114347D01*
X0188847Y0113279D01*
X0190244Y0112700D01*
X0191756Y0112700D01*
X0193153Y0113279D01*
X0194221Y0114347D01*
X0194800Y0115744D01*
X0194800Y0117256D01*
X0194221Y0118653D01*
X0193153Y0119721D01*
X0198847Y0119721D01*
X0197779Y0118653D01*
X0197200Y0117256D01*
X0197200Y0115824D01*
X0197183Y0115809D01*
X0197173Y0115706D01*
X0197100Y0115633D01*
X0197100Y0114936D01*
X0197034Y0114242D01*
X0197100Y0114163D01*
X0197100Y0107900D01*
X0196920Y0107900D01*
X0196185Y0107165D01*
X0196177Y0107195D01*
X0195940Y0107605D01*
X0195605Y0107940D01*
X0195195Y0108177D01*
X0194737Y0108300D01*
X0193000Y0108300D01*
X0193000Y0105000D01*
X0193000Y0105000D01*
X0193000Y0101700D01*
X0194737Y0101700D01*
X0195195Y0101823D01*
X0195605Y0102060D01*
X0195940Y0102395D01*
X0196177Y0102805D01*
X0196185Y0102835D01*
X0196920Y0102100D01*
X0201080Y0102100D01*
X0201900Y0102920D01*
X0201900Y0107080D01*
X0201080Y0107900D01*
X0200900Y0107900D01*
X0200900Y0112700D01*
X0201756Y0112700D01*
X0203153Y0113279D01*
X0204221Y0114347D01*
X0204800Y0115744D01*
X0204800Y0117256D01*
X0204221Y0118653D01*
X0203153Y0119721D01*
X0209293Y0119721D01*
X0208487Y0118123D02*
X0204441Y0118123D01*
X0203153Y0119721D02*
X0201756Y0120300D01*
X0200244Y0120300D01*
X0198847Y0119721D01*
X0197559Y0118123D02*
X0194441Y0118123D01*
X0193153Y0119721D02*
X0191756Y0120300D01*
X0190244Y0120300D01*
X0188847Y0119721D01*
X0187559Y0118123D02*
X0169441Y0118123D01*
X0168153Y0119721D02*
X0166756Y0120300D01*
X0165244Y0120300D01*
X0163847Y0119721D01*
X0162559Y0118123D02*
X0159441Y0118123D01*
X0158153Y0119721D02*
X0156756Y0120300D01*
X0155244Y0120300D01*
X0153847Y0119721D01*
X0152559Y0118123D02*
X0134466Y0118123D01*
X0134800Y0116524D02*
X0152200Y0116524D01*
X0152539Y0114926D02*
X0134435Y0114926D01*
X0133122Y0113327D02*
X0153799Y0113327D01*
X0158201Y0113327D02*
X0162100Y0113327D01*
X0162100Y0111729D02*
X0130900Y0111729D01*
X0130900Y0110130D02*
X0162100Y0110130D01*
X0162100Y0108532D02*
X0130900Y0108532D01*
X0131900Y0106933D02*
X0154753Y0106933D01*
X0154700Y0106737D02*
X0154823Y0107195D01*
X0155060Y0107605D01*
X0155395Y0107940D01*
X0155805Y0108177D01*
X0156263Y0108300D01*
X0158000Y0108300D01*
X0158000Y0105000D01*
X0158000Y0105000D01*
X0158000Y0105000D01*
X0154700Y0105000D01*
X0154700Y0106737D01*
X0154700Y0105334D02*
X0131900Y0105334D01*
X0131900Y0103736D02*
X0154700Y0103736D01*
X0154700Y0103263D02*
X0154823Y0102805D01*
X0155060Y0102395D01*
X0155395Y0102060D01*
X0155805Y0101823D01*
X0156263Y0101700D01*
X0158000Y0101700D01*
X0158000Y0105000D01*
X0154700Y0105000D01*
X0154700Y0103263D01*
X0155317Y0102137D02*
X0131117Y0102137D01*
X0126883Y0102137D02*
X0125683Y0102137D01*
X0123000Y0102137D02*
X0123000Y0102137D01*
X0123000Y0101700D02*
X0123000Y0105000D01*
X0123000Y0105000D01*
X0123000Y0105000D01*
X0119700Y0105000D01*
X0119700Y0106737D01*
X0119823Y0107195D01*
X0120060Y0107605D01*
X0120395Y0107940D01*
X0120805Y0108177D01*
X0121263Y0108300D01*
X0123000Y0108300D01*
X0123000Y0105000D01*
X0119700Y0105000D01*
X0119700Y0103263D01*
X0119823Y0102805D01*
X0120060Y0102395D01*
X0120395Y0102060D01*
X0120805Y0101823D01*
X0121263Y0101700D01*
X0123000Y0101700D01*
X0123000Y0103736D02*
X0123000Y0103736D01*
X0123000Y0105334D02*
X0123000Y0105334D01*
X0119700Y0105334D02*
X0096900Y0105334D01*
X0096900Y0103736D02*
X0119700Y0103736D01*
X0120317Y0102137D02*
X0096117Y0102137D01*
X0091883Y0102137D02*
X0090683Y0102137D01*
X0088000Y0102137D02*
X0088000Y0102137D01*
X0088000Y0101700D02*
X0088000Y0105000D01*
X0088000Y0105000D01*
X0088000Y0105000D01*
X0084700Y0105000D01*
X0084700Y0106737D01*
X0084823Y0107195D01*
X0085060Y0107605D01*
X0085395Y0107940D01*
X0085805Y0108177D01*
X0086263Y0108300D01*
X0088000Y0108300D01*
X0088000Y0105000D01*
X0084700Y0105000D01*
X0084700Y0103263D01*
X0084823Y0102805D01*
X0085060Y0102395D01*
X0085395Y0102060D01*
X0085805Y0101823D01*
X0086263Y0101700D01*
X0088000Y0101700D01*
X0088000Y0103736D02*
X0088000Y0103736D01*
X0088000Y0105334D02*
X0088000Y0105334D01*
X0084700Y0105334D02*
X0067723Y0105334D01*
X0066125Y0103736D02*
X0084700Y0103736D01*
X0085317Y0102137D02*
X0064869Y0102137D01*
X0070252Y0106933D02*
X0084753Y0106933D01*
X0088000Y0106933D02*
X0088000Y0106933D01*
X0092100Y0108532D02*
X0074922Y0108532D01*
X0083300Y0110130D02*
X0092100Y0110130D01*
X0092100Y0111729D02*
X0083300Y0111729D01*
X0083300Y0113327D02*
X0083799Y0113327D01*
X0088201Y0113327D02*
X0092100Y0113327D01*
X0092099Y0114926D02*
X0089461Y0114926D01*
X0089800Y0116524D02*
X0092200Y0116524D01*
X0098201Y0113327D02*
X0104244Y0113327D01*
X0103467Y0114926D02*
X0099461Y0114926D01*
X0099800Y0116524D02*
X0103247Y0116524D01*
X0106293Y0111729D02*
X0095900Y0111729D01*
X0095900Y0110130D02*
X0127100Y0110130D01*
X0127100Y0108532D02*
X0095900Y0108532D01*
X0096900Y0106933D02*
X0119753Y0106933D01*
X0123000Y0106933D02*
X0123000Y0106933D01*
X0127100Y0111729D02*
X0110707Y0111729D01*
X0106409Y0121320D02*
X0084965Y0121320D01*
X0085887Y0122918D02*
X0236113Y0122918D01*
X0234692Y0124517D02*
X0087308Y0124517D01*
X0089086Y0126115D02*
X0232914Y0126115D01*
X0230032Y0127714D02*
X0091968Y0127714D01*
X0158000Y0106933D02*
X0158000Y0106933D01*
X0158000Y0105334D02*
X0158000Y0105334D01*
X0158000Y0103736D02*
X0158000Y0103736D01*
X0158000Y0102137D02*
X0158000Y0102137D01*
X0160683Y0102137D02*
X0161883Y0102137D01*
X0166117Y0102137D02*
X0190317Y0102137D01*
X0190395Y0102060D02*
X0190805Y0101823D01*
X0191263Y0101700D01*
X0193000Y0101700D01*
X0193000Y0105000D01*
X0193000Y0105000D01*
X0193000Y0105000D01*
X0189700Y0105000D01*
X0189700Y0106737D01*
X0189823Y0107195D01*
X0190060Y0107605D01*
X0190395Y0107940D01*
X0190805Y0108177D01*
X0191263Y0108300D01*
X0193000Y0108300D01*
X0193000Y0105000D01*
X0189700Y0105000D01*
X0189700Y0103263D01*
X0189823Y0102805D01*
X0190060Y0102395D01*
X0190395Y0102060D01*
X0189700Y0103736D02*
X0166900Y0103736D01*
X0166900Y0105334D02*
X0189700Y0105334D01*
X0193000Y0105334D02*
X0193000Y0105334D01*
X0193000Y0103736D02*
X0193000Y0103736D01*
X0193000Y0102137D02*
X0193000Y0102137D01*
X0195683Y0102137D02*
X0196883Y0102137D01*
X0201117Y0102137D02*
X0225317Y0102137D01*
X0225395Y0102060D02*
X0225805Y0101823D01*
X0226263Y0101700D01*
X0228000Y0101700D01*
X0228000Y0105000D01*
X0228000Y0105000D01*
X0228000Y0105000D01*
X0224700Y0105000D01*
X0224700Y0106737D01*
X0224823Y0107195D01*
X0225060Y0107605D01*
X0225395Y0107940D01*
X0225805Y0108177D01*
X0226263Y0108300D01*
X0228000Y0108300D01*
X0228000Y0105000D01*
X0224700Y0105000D01*
X0224700Y0103263D01*
X0224823Y0102805D01*
X0225060Y0102395D01*
X0225395Y0102060D01*
X0224700Y0103736D02*
X0201900Y0103736D01*
X0201900Y0105334D02*
X0224700Y0105334D01*
X0228000Y0105334D02*
X0228000Y0105334D01*
X0228000Y0103736D02*
X0228000Y0103736D01*
X0228000Y0102137D02*
X0228000Y0102137D01*
X0230683Y0102137D02*
X0231883Y0102137D01*
X0228000Y0106933D02*
X0228000Y0106933D01*
X0224753Y0106933D02*
X0201900Y0106933D01*
X0200900Y0108532D02*
X0232100Y0108532D01*
X0232100Y0110130D02*
X0200900Y0110130D01*
X0200900Y0111729D02*
X0211293Y0111729D01*
X0209244Y0113327D02*
X0203201Y0113327D01*
X0204461Y0114926D02*
X0208467Y0114926D01*
X0208247Y0116524D02*
X0204800Y0116524D01*
X0197200Y0116524D02*
X0194800Y0116524D01*
X0194461Y0114926D02*
X0197099Y0114926D01*
X0197100Y0113327D02*
X0193201Y0113327D01*
X0188799Y0113327D02*
X0168201Y0113327D01*
X0169461Y0114926D02*
X0187539Y0114926D01*
X0187200Y0116524D02*
X0169800Y0116524D01*
X0162200Y0116524D02*
X0159800Y0116524D01*
X0159461Y0114926D02*
X0162099Y0114926D01*
X0165900Y0111729D02*
X0197100Y0111729D01*
X0197100Y0110130D02*
X0165900Y0110130D01*
X0165900Y0108532D02*
X0197100Y0108532D01*
X0193000Y0106933D02*
X0193000Y0106933D01*
X0189753Y0106933D02*
X0166900Y0106933D01*
X0215707Y0111729D02*
X0232100Y0111729D01*
X0223799Y0113327D02*
X0217756Y0113327D01*
X0218533Y0114926D02*
X0222539Y0114926D01*
X0222200Y0116524D02*
X0218753Y0116524D01*
X0222779Y0118653D02*
X0223847Y0119721D01*
X0239914Y0084554D02*
X0250341Y0084554D01*
X0243958Y0049387D02*
X0078042Y0049387D01*
X0077975Y0049453D02*
X0076045Y0050253D01*
X0073955Y0050253D01*
X0072025Y0049453D01*
X0070547Y0047975D01*
X0069747Y0046045D01*
X0069747Y0043955D01*
X0070547Y0042025D01*
X0072025Y0040547D01*
X0073955Y0039747D01*
X0076045Y0039747D01*
X0077975Y0040547D01*
X0079453Y0042025D01*
X0080253Y0043955D01*
X0080253Y0046045D01*
X0079453Y0047975D01*
X0077975Y0049453D01*
X0079531Y0047788D02*
X0242469Y0047788D01*
X0241807Y0046190D02*
X0080193Y0046190D01*
X0080253Y0044591D02*
X0241747Y0044591D01*
X0242146Y0042993D02*
X0079854Y0042993D01*
X0078823Y0041394D02*
X0243177Y0041394D01*
X0245839Y0039796D02*
X0076161Y0039796D01*
X0073839Y0039796D02*
X0068990Y0039796D01*
X0066995Y0041394D02*
X0071177Y0041394D01*
X0070146Y0042993D02*
X0065396Y0042993D01*
X0064449Y0044591D02*
X0069747Y0044591D01*
X0069807Y0046190D02*
X0063526Y0046190D01*
X0063040Y0047788D02*
X0070469Y0047788D01*
X0071958Y0049387D02*
X0062612Y0049387D01*
X0135800Y0070167D02*
X0136200Y0070167D01*
X0136200Y0069200D02*
X0136378Y0069200D01*
X0137124Y0069318D01*
X0137843Y0069552D01*
X0138516Y0069895D01*
X0139127Y0070339D01*
X0139661Y0070873D01*
X0140105Y0071484D01*
X0140448Y0072157D01*
X0140682Y0072876D01*
X0140800Y0073622D01*
X0140800Y0073800D01*
X0136200Y0073800D01*
X0136200Y0074200D01*
X0135800Y0074200D01*
X0135800Y0073800D01*
X0136200Y0073800D01*
X0136200Y0069200D01*
X0138891Y0070167D02*
X0143755Y0070167D01*
X0142163Y0071766D02*
X0140249Y0071766D01*
X0140759Y0073364D02*
X0141600Y0073364D01*
X0140800Y0074200D02*
X0136200Y0074200D01*
X0136200Y0078800D01*
X0136378Y0078800D01*
X0137124Y0078682D01*
X0137843Y0078448D01*
X0138516Y0078105D01*
X0139127Y0077661D01*
X0139661Y0077127D01*
X0140105Y0076516D01*
X0140448Y0075843D01*
X0140682Y0075124D01*
X0140800Y0074378D01*
X0140800Y0074200D01*
X0140707Y0074963D02*
X0141636Y0074963D01*
X0142339Y0076561D02*
X0140072Y0076561D01*
X0138409Y0078160D02*
X0144545Y0078160D01*
X0136200Y0078160D02*
X0135800Y0078160D01*
X0135800Y0076561D02*
X0136200Y0076561D01*
X0136200Y0074963D02*
X0135800Y0074963D01*
X0135800Y0073364D02*
X0136200Y0073364D01*
X0136200Y0071766D02*
X0135800Y0071766D01*
M02*
