G75*
%MOIN*%
%OFA0B0*%
%FSLAX25Y25*%
%IPPOS*%
%LPD*%
%AMOC8*
5,1,8,0,0,1.08239X$1,22.5*
%
%ADD10C,0.07400*%
%ADD11C,0.04800*%
%ADD12C,0.04800*%
%ADD13C,0.06000*%
%ADD14C,0.01600*%
%ADD15C,0.01000*%
D10*
X0254000Y0071000D03*
X0254000Y0081000D03*
D11*
X0236000Y0116500D03*
X0226000Y0116500D03*
X0201000Y0116500D03*
X0191000Y0116500D03*
X0166000Y0116500D03*
X0156000Y0116500D03*
X0131000Y0116561D03*
X0121000Y0116439D03*
X0096000Y0116500D03*
X0086000Y0116500D03*
D12*
X0231600Y0086000D02*
X0236400Y0086000D01*
X0236400Y0076000D02*
X0231600Y0076000D01*
X0231600Y0066000D02*
X0236400Y0066000D01*
D13*
X0186000Y0090000D03*
X0176000Y0090000D03*
X0166000Y0090000D03*
X0156000Y0090000D03*
X0146000Y0090000D03*
X0136000Y0090000D03*
X0136000Y0074000D03*
X0146000Y0074000D03*
D14*
X0075081Y0037426D02*
X0071375Y0038419D01*
X0068051Y0040338D01*
X0065338Y0043051D01*
X0063419Y0046375D01*
X0062426Y0050081D01*
X0062300Y0052000D01*
X0062300Y0094000D01*
X0062426Y0095919D01*
X0063419Y0099625D01*
X0065338Y0102949D01*
X0068051Y0105662D01*
X0071375Y0107581D01*
X0075081Y0108574D01*
X0077000Y0108700D01*
X0081953Y0108700D01*
X0083300Y0110047D01*
X0083300Y0113826D01*
X0083847Y0113279D01*
X0085244Y0112700D01*
X0086756Y0112700D01*
X0087008Y0112805D01*
X0110600Y0089213D01*
X0110600Y0089213D01*
X0111713Y0088100D01*
X0132024Y0088100D01*
X0132270Y0087508D01*
X0133508Y0086270D01*
X0135125Y0085600D01*
X0136875Y0085600D01*
X0138492Y0086270D01*
X0139730Y0087508D01*
X0140400Y0089125D01*
X0140400Y0090875D01*
X0139730Y0092492D01*
X0138492Y0093730D01*
X0136875Y0094400D01*
X0135125Y0094400D01*
X0133508Y0093730D01*
X0132270Y0092492D01*
X0132024Y0091900D01*
X0113287Y0091900D01*
X0089695Y0115492D01*
X0089800Y0115744D01*
X0089800Y0117256D01*
X0089221Y0118653D01*
X0088153Y0119721D01*
X0093847Y0119721D01*
X0092779Y0118653D01*
X0092200Y0117256D01*
X0092200Y0115744D01*
X0092779Y0114347D01*
X0093847Y0113279D01*
X0095244Y0112700D01*
X0096756Y0112700D01*
X0098153Y0113279D01*
X0099221Y0114347D01*
X0099800Y0115744D01*
X0099800Y0117256D01*
X0099221Y0118653D01*
X0098153Y0119721D01*
X0104293Y0119721D01*
X0104047Y0119475D02*
X0103247Y0117545D01*
X0103247Y0115455D01*
X0104047Y0113525D01*
X0105525Y0112047D01*
X0107455Y0111247D01*
X0109545Y0111247D01*
X0111475Y0112047D01*
X0112953Y0113525D01*
X0113753Y0115455D01*
X0113753Y0117545D01*
X0112953Y0119475D01*
X0111475Y0120953D01*
X0109545Y0121753D01*
X0107455Y0121753D01*
X0105525Y0120953D01*
X0104047Y0119475D01*
X0103487Y0118123D02*
X0099441Y0118123D01*
X0098153Y0119721D02*
X0096756Y0120300D01*
X0095244Y0120300D01*
X0093847Y0119721D01*
X0092559Y0118123D02*
X0089441Y0118123D01*
X0088153Y0119721D02*
X0086756Y0120300D01*
X0085244Y0120300D01*
X0084248Y0119887D01*
X0084343Y0120243D01*
X0086131Y0123340D01*
X0088660Y0125869D01*
X0091757Y0127657D01*
X0095212Y0128583D01*
X0097000Y0128700D01*
X0225000Y0128700D01*
X0226788Y0128583D01*
X0230243Y0127657D01*
X0233340Y0125869D01*
X0235869Y0123340D01*
X0237657Y0120243D01*
X0237752Y0119887D01*
X0236756Y0120300D01*
X0235244Y0120300D01*
X0233847Y0119721D01*
X0228153Y0119721D01*
X0226756Y0120300D01*
X0225244Y0120300D01*
X0223847Y0119721D01*
X0217707Y0119721D01*
X0217953Y0119475D02*
X0216475Y0120953D01*
X0214545Y0121753D01*
X0212455Y0121753D01*
X0210525Y0120953D01*
X0209047Y0119475D01*
X0208247Y0117545D01*
X0208247Y0115455D01*
X0209047Y0113525D01*
X0210525Y0112047D01*
X0212455Y0111247D01*
X0214545Y0111247D01*
X0216475Y0112047D01*
X0217953Y0113525D01*
X0218753Y0115455D01*
X0218753Y0117545D01*
X0217953Y0119475D01*
X0218513Y0118123D02*
X0222559Y0118123D01*
X0222779Y0118653D02*
X0222200Y0117256D01*
X0222200Y0115744D01*
X0222744Y0114431D01*
X0209213Y0100900D01*
X0185255Y0100900D01*
X0185232Y0100922D01*
X0184473Y0100900D01*
X0183713Y0100900D01*
X0183691Y0100878D01*
X0183659Y0100877D01*
X0183137Y0100324D01*
X0182600Y0099787D01*
X0182600Y0099755D01*
X0177355Y0094201D01*
X0176875Y0094400D01*
X0175125Y0094400D01*
X0173508Y0093730D01*
X0172270Y0092492D01*
X0171600Y0090875D01*
X0171600Y0089125D01*
X0172270Y0087508D01*
X0173508Y0086270D01*
X0175125Y0085600D01*
X0176875Y0085600D01*
X0178492Y0086270D01*
X0179730Y0087508D01*
X0180400Y0089125D01*
X0180400Y0090875D01*
X0180107Y0091582D01*
X0185319Y0097100D01*
X0210787Y0097100D01*
X0226387Y0112700D01*
X0226756Y0112700D01*
X0228153Y0113279D01*
X0229221Y0114347D01*
X0229800Y0115744D01*
X0229800Y0117256D01*
X0229221Y0118653D01*
X0228153Y0119721D01*
X0229441Y0118123D02*
X0232559Y0118123D01*
X0232779Y0118653D02*
X0232200Y0117256D01*
X0232200Y0115744D01*
X0232779Y0114347D01*
X0233847Y0113279D01*
X0235244Y0112700D01*
X0236756Y0112700D01*
X0238153Y0113279D01*
X0238700Y0113826D01*
X0238700Y0110047D01*
X0240047Y0108700D01*
X0245000Y0108700D01*
X0246919Y0108574D01*
X0250625Y0107581D01*
X0253949Y0105662D01*
X0256662Y0102949D01*
X0258581Y0099625D01*
X0259574Y0095919D01*
X0259700Y0094000D01*
X0259700Y0052000D01*
X0259574Y0050081D01*
X0258581Y0046375D01*
X0256662Y0043051D01*
X0253949Y0040338D01*
X0250625Y0038419D01*
X0246919Y0037426D01*
X0245000Y0037300D01*
X0077000Y0037300D01*
X0075081Y0037426D01*
X0072203Y0038197D02*
X0249797Y0038197D01*
X0248161Y0039796D02*
X0253010Y0039796D01*
X0255005Y0041394D02*
X0250823Y0041394D01*
X0251453Y0042025D02*
X0249975Y0040547D01*
X0248045Y0039747D01*
X0245955Y0039747D01*
X0244025Y0040547D01*
X0242547Y0042025D01*
X0241747Y0043955D01*
X0241747Y0046045D01*
X0242547Y0047975D01*
X0244025Y0049453D01*
X0245955Y0050253D01*
X0248045Y0050253D01*
X0249975Y0049453D01*
X0251453Y0047975D01*
X0252253Y0046045D01*
X0252253Y0043955D01*
X0251453Y0042025D01*
X0251854Y0042993D02*
X0256604Y0042993D01*
X0257551Y0044591D02*
X0252253Y0044591D01*
X0252193Y0046190D02*
X0258474Y0046190D01*
X0258960Y0047788D02*
X0251531Y0047788D01*
X0250042Y0049387D02*
X0259388Y0049387D01*
X0259633Y0050985D02*
X0062367Y0050985D01*
X0062300Y0052584D02*
X0259700Y0052584D01*
X0259700Y0054182D02*
X0062300Y0054182D01*
X0062300Y0055781D02*
X0259700Y0055781D01*
X0259700Y0057379D02*
X0062300Y0057379D01*
X0062300Y0058978D02*
X0259700Y0058978D01*
X0259700Y0060576D02*
X0062300Y0060576D01*
X0062300Y0062175D02*
X0229856Y0062175D01*
X0229988Y0062108D02*
X0230616Y0061903D01*
X0231269Y0061800D01*
X0234000Y0061800D01*
X0236731Y0061800D01*
X0237384Y0061903D01*
X0238012Y0062108D01*
X0238601Y0062408D01*
X0239136Y0062796D01*
X0239604Y0063264D01*
X0239992Y0063799D01*
X0240292Y0064388D01*
X0240497Y0065016D01*
X0240600Y0065669D01*
X0240600Y0066000D01*
X0240600Y0066331D01*
X0240497Y0066984D01*
X0240292Y0067612D01*
X0239992Y0068201D01*
X0239604Y0068736D01*
X0239240Y0069100D01*
X0249267Y0069100D01*
X0249676Y0068111D01*
X0251111Y0066676D01*
X0252986Y0065900D01*
X0255014Y0065900D01*
X0256889Y0066676D01*
X0258324Y0068111D01*
X0259100Y0069986D01*
X0259100Y0072014D01*
X0258324Y0073889D01*
X0256889Y0075324D01*
X0255256Y0076000D01*
X0256889Y0076676D01*
X0258324Y0078111D01*
X0259100Y0079986D01*
X0259100Y0082014D01*
X0258324Y0083889D01*
X0256889Y0085324D01*
X0255014Y0086100D01*
X0252986Y0086100D01*
X0251111Y0085324D01*
X0249676Y0083889D01*
X0249267Y0082900D01*
X0240688Y0082900D01*
X0239589Y0083815D01*
X0239621Y0083847D01*
X0240200Y0085244D01*
X0240200Y0086756D01*
X0239621Y0088153D01*
X0238553Y0089221D01*
X0237156Y0089800D01*
X0230844Y0089800D01*
X0229447Y0089221D01*
X0228379Y0088153D01*
X0227800Y0086756D01*
X0227800Y0085244D01*
X0228379Y0083847D01*
X0229447Y0082779D01*
X0230844Y0082200D01*
X0235592Y0082200D01*
X0238717Y0079596D01*
X0239213Y0079100D01*
X0239312Y0079100D01*
X0239388Y0079037D01*
X0240086Y0079100D01*
X0249267Y0079100D01*
X0249676Y0078111D01*
X0251111Y0076676D01*
X0252744Y0076000D01*
X0251111Y0075324D01*
X0249676Y0073889D01*
X0249267Y0072900D01*
X0238674Y0072900D01*
X0239621Y0073847D01*
X0240200Y0075244D01*
X0240200Y0076756D01*
X0239621Y0078153D01*
X0238553Y0079221D01*
X0237156Y0079800D01*
X0230844Y0079800D01*
X0229447Y0079221D01*
X0228379Y0078153D01*
X0227800Y0076756D01*
X0227800Y0075244D01*
X0228379Y0073847D01*
X0229326Y0072900D01*
X0151075Y0072900D01*
X0150400Y0073350D01*
X0150400Y0074875D01*
X0149730Y0076492D01*
X0148492Y0077730D01*
X0146875Y0078400D01*
X0145125Y0078400D01*
X0143508Y0077730D01*
X0142270Y0076492D01*
X0141600Y0074875D01*
X0141600Y0073125D01*
X0142270Y0071508D01*
X0143508Y0070270D01*
X0145125Y0069600D01*
X0146875Y0069600D01*
X0148294Y0070187D01*
X0149290Y0069523D01*
X0149713Y0069100D01*
X0149925Y0069100D01*
X0150101Y0068983D01*
X0150688Y0069100D01*
X0228760Y0069100D01*
X0228396Y0068736D01*
X0228008Y0068201D01*
X0227708Y0067612D01*
X0227503Y0066984D01*
X0227400Y0066331D01*
X0227400Y0066000D01*
X0234000Y0066000D01*
X0240600Y0066000D01*
X0234000Y0066000D01*
X0234000Y0066000D01*
X0234000Y0061800D01*
X0234000Y0066000D01*
X0234000Y0066000D01*
X0234000Y0066000D01*
X0227400Y0066000D01*
X0227400Y0065669D01*
X0227503Y0065016D01*
X0227708Y0064388D01*
X0228008Y0063799D01*
X0228396Y0063264D01*
X0228864Y0062796D01*
X0229399Y0062408D01*
X0229988Y0062108D01*
X0228026Y0063773D02*
X0062300Y0063773D01*
X0062300Y0065372D02*
X0227447Y0065372D01*
X0227501Y0066970D02*
X0062300Y0066970D01*
X0062300Y0068569D02*
X0228275Y0068569D01*
X0234000Y0065372D02*
X0234000Y0065372D01*
X0234000Y0063773D02*
X0234000Y0063773D01*
X0234000Y0062175D02*
X0234000Y0062175D01*
X0238144Y0062175D02*
X0259700Y0062175D01*
X0259700Y0063773D02*
X0239974Y0063773D01*
X0240553Y0065372D02*
X0259700Y0065372D01*
X0259700Y0066970D02*
X0257183Y0066970D01*
X0258513Y0068569D02*
X0259700Y0068569D01*
X0259700Y0070167D02*
X0259100Y0070167D01*
X0259100Y0071766D02*
X0259700Y0071766D01*
X0259700Y0073364D02*
X0258541Y0073364D01*
X0259700Y0074963D02*
X0257250Y0074963D01*
X0256611Y0076561D02*
X0259700Y0076561D01*
X0259700Y0078160D02*
X0258344Y0078160D01*
X0259006Y0079758D02*
X0259700Y0079758D01*
X0259700Y0081357D02*
X0259100Y0081357D01*
X0258710Y0082955D02*
X0259700Y0082955D01*
X0259700Y0084554D02*
X0257659Y0084554D01*
X0259700Y0086152D02*
X0240200Y0086152D01*
X0239788Y0087751D02*
X0259700Y0087751D01*
X0259700Y0089349D02*
X0238244Y0089349D01*
X0229756Y0089349D02*
X0190400Y0089349D01*
X0190400Y0089125D02*
X0189730Y0087508D01*
X0188492Y0086270D01*
X0186875Y0085600D01*
X0185125Y0085600D01*
X0183508Y0086270D01*
X0182270Y0087508D01*
X0181600Y0089125D01*
X0181600Y0090875D01*
X0182270Y0092492D01*
X0183508Y0093730D01*
X0185125Y0094400D01*
X0186875Y0094400D01*
X0188492Y0093730D01*
X0189730Y0092492D01*
X0190400Y0090875D01*
X0190400Y0089125D01*
X0189831Y0087751D02*
X0228212Y0087751D01*
X0227800Y0086152D02*
X0188209Y0086152D01*
X0183791Y0086152D02*
X0178209Y0086152D01*
X0179831Y0087751D02*
X0182169Y0087751D01*
X0181600Y0089349D02*
X0180400Y0089349D01*
X0180370Y0090948D02*
X0181630Y0090948D01*
X0181018Y0092546D02*
X0182324Y0092546D01*
X0182528Y0094145D02*
X0184509Y0094145D01*
X0184038Y0095743D02*
X0259586Y0095743D01*
X0259691Y0094145D02*
X0187491Y0094145D01*
X0189676Y0092546D02*
X0259700Y0092546D01*
X0259700Y0090948D02*
X0190370Y0090948D01*
X0178811Y0095743D02*
X0174502Y0095743D01*
X0174509Y0094145D02*
X0172887Y0094145D01*
X0172324Y0092546D02*
X0171273Y0092546D01*
X0170163Y0091448D02*
X0191630Y0112700D01*
X0191756Y0112700D01*
X0193153Y0113279D01*
X0194221Y0114347D01*
X0194800Y0115744D01*
X0194800Y0117256D01*
X0194221Y0118653D01*
X0193153Y0119721D01*
X0198847Y0119721D01*
X0197779Y0118653D01*
X0197200Y0117256D01*
X0197200Y0115744D01*
X0197779Y0114347D01*
X0198847Y0113279D01*
X0200244Y0112700D01*
X0201756Y0112700D01*
X0203153Y0113279D01*
X0204221Y0114347D01*
X0204800Y0115744D01*
X0204800Y0117256D01*
X0204221Y0118653D01*
X0203153Y0119721D01*
X0209293Y0119721D01*
X0208487Y0118123D02*
X0204441Y0118123D01*
X0203153Y0119721D02*
X0201756Y0120300D01*
X0200244Y0120300D01*
X0198847Y0119721D01*
X0197559Y0118123D02*
X0194441Y0118123D01*
X0193153Y0119721D02*
X0191756Y0120300D01*
X0190244Y0120300D01*
X0188847Y0119721D01*
X0168153Y0119721D01*
X0166756Y0120300D01*
X0165244Y0120300D01*
X0163847Y0119721D01*
X0158153Y0119721D01*
X0156756Y0120300D01*
X0155244Y0120300D01*
X0153847Y0119721D01*
X0133214Y0119721D01*
X0133152Y0119783D02*
X0131755Y0120361D01*
X0130244Y0120361D01*
X0128847Y0119783D01*
X0127778Y0118714D01*
X0127200Y0117317D01*
X0127200Y0115805D01*
X0127778Y0114409D01*
X0128847Y0113340D01*
X0130244Y0112761D01*
X0131755Y0112761D01*
X0133152Y0113340D01*
X0134221Y0114409D01*
X0134800Y0115805D01*
X0134800Y0117317D01*
X0134221Y0118714D01*
X0133152Y0119783D01*
X0134466Y0118123D02*
X0152559Y0118123D01*
X0152779Y0118653D02*
X0152200Y0117256D01*
X0152200Y0115744D01*
X0152779Y0114347D01*
X0153847Y0113279D01*
X0154100Y0113174D01*
X0154100Y0093976D01*
X0153508Y0093730D01*
X0152270Y0092492D01*
X0151600Y0090875D01*
X0151600Y0089125D01*
X0152270Y0087508D01*
X0153508Y0086270D01*
X0155125Y0085600D01*
X0156875Y0085600D01*
X0158492Y0086270D01*
X0159730Y0087508D01*
X0160400Y0089125D01*
X0160400Y0090875D01*
X0159730Y0092492D01*
X0158492Y0093730D01*
X0157900Y0093976D01*
X0157900Y0113174D01*
X0158153Y0113279D01*
X0159221Y0114347D01*
X0159800Y0115744D01*
X0159800Y0117256D01*
X0159221Y0118653D01*
X0158153Y0119721D01*
X0159441Y0118123D02*
X0162559Y0118123D01*
X0162779Y0118653D02*
X0162200Y0117256D01*
X0162200Y0115744D01*
X0162779Y0114347D01*
X0163847Y0113279D01*
X0165244Y0112700D01*
X0166756Y0112700D01*
X0168153Y0113279D01*
X0169221Y0114347D01*
X0169800Y0115744D01*
X0169800Y0117256D01*
X0169221Y0118653D01*
X0168153Y0119721D01*
X0169441Y0118123D02*
X0187559Y0118123D01*
X0187779Y0118653D02*
X0187200Y0117256D01*
X0187200Y0115744D01*
X0187779Y0114347D01*
X0187835Y0114291D01*
X0167488Y0094146D01*
X0166875Y0094400D01*
X0165125Y0094400D01*
X0163508Y0093730D01*
X0162270Y0092492D01*
X0161600Y0090875D01*
X0161600Y0089125D01*
X0162270Y0087508D01*
X0163508Y0086270D01*
X0165125Y0085600D01*
X0166875Y0085600D01*
X0168492Y0086270D01*
X0169730Y0087508D01*
X0170400Y0089125D01*
X0170400Y0090875D01*
X0170163Y0091448D01*
X0170370Y0090948D02*
X0171630Y0090948D01*
X0171600Y0089349D02*
X0170400Y0089349D01*
X0169831Y0087751D02*
X0172169Y0087751D01*
X0173791Y0086152D02*
X0168209Y0086152D01*
X0163791Y0086152D02*
X0158209Y0086152D01*
X0159831Y0087751D02*
X0162169Y0087751D01*
X0161600Y0089349D02*
X0160400Y0089349D01*
X0160370Y0090948D02*
X0161630Y0090948D01*
X0162324Y0092546D02*
X0159676Y0092546D01*
X0157900Y0094145D02*
X0164509Y0094145D01*
X0169101Y0095743D02*
X0157900Y0095743D01*
X0154100Y0095743D02*
X0142899Y0095743D01*
X0144512Y0094146D02*
X0145125Y0094400D01*
X0146875Y0094400D01*
X0148492Y0093730D01*
X0149730Y0092492D01*
X0150400Y0090875D01*
X0150400Y0089125D01*
X0149730Y0087508D01*
X0148492Y0086270D01*
X0146875Y0085600D01*
X0145125Y0085600D01*
X0143508Y0086270D01*
X0142270Y0087508D01*
X0141600Y0089125D01*
X0141600Y0090875D01*
X0141837Y0091448D01*
X0120432Y0112639D01*
X0120244Y0112639D01*
X0118848Y0113217D01*
X0117779Y0114286D01*
X0117200Y0115683D01*
X0117200Y0117195D01*
X0117779Y0118591D01*
X0118848Y0119660D01*
X0120244Y0120239D01*
X0121756Y0120239D01*
X0123153Y0119660D01*
X0124222Y0118591D01*
X0124800Y0117195D01*
X0124800Y0115683D01*
X0124222Y0114286D01*
X0124195Y0114260D01*
X0144512Y0094146D01*
X0147491Y0094145D02*
X0154100Y0094145D01*
X0152324Y0092546D02*
X0149676Y0092546D01*
X0150370Y0090948D02*
X0151630Y0090948D01*
X0151600Y0089349D02*
X0150400Y0089349D01*
X0149831Y0087751D02*
X0152169Y0087751D01*
X0153791Y0086152D02*
X0148209Y0086152D01*
X0143791Y0086152D02*
X0138209Y0086152D01*
X0139831Y0087751D02*
X0142169Y0087751D01*
X0141600Y0089349D02*
X0140400Y0089349D01*
X0140370Y0090948D02*
X0141630Y0090948D01*
X0140727Y0092546D02*
X0139676Y0092546D01*
X0139113Y0094145D02*
X0137491Y0094145D01*
X0137498Y0095743D02*
X0109444Y0095743D01*
X0111042Y0094145D02*
X0134509Y0094145D01*
X0132324Y0092546D02*
X0112641Y0092546D01*
X0108865Y0090948D02*
X0062300Y0090948D01*
X0062300Y0092546D02*
X0107267Y0092546D01*
X0105668Y0094145D02*
X0062309Y0094145D01*
X0062414Y0095743D02*
X0104070Y0095743D01*
X0102471Y0097342D02*
X0062807Y0097342D01*
X0063235Y0098940D02*
X0100873Y0098940D01*
X0099274Y0100539D02*
X0063946Y0100539D01*
X0064869Y0102137D02*
X0097676Y0102137D01*
X0096077Y0103736D02*
X0066125Y0103736D01*
X0067723Y0105334D02*
X0094479Y0105334D01*
X0099852Y0105334D02*
X0127810Y0105334D01*
X0129425Y0103736D02*
X0101451Y0103736D01*
X0103049Y0102137D02*
X0131039Y0102137D01*
X0132654Y0100539D02*
X0104648Y0100539D01*
X0106247Y0098940D02*
X0134269Y0098940D01*
X0135883Y0097342D02*
X0107845Y0097342D01*
X0110464Y0089349D02*
X0062300Y0089349D01*
X0062300Y0087751D02*
X0132169Y0087751D01*
X0133791Y0086152D02*
X0062300Y0086152D01*
X0062300Y0084554D02*
X0228086Y0084554D01*
X0229271Y0082955D02*
X0062300Y0082955D01*
X0062300Y0081357D02*
X0236604Y0081357D01*
X0237256Y0079758D02*
X0238522Y0079758D01*
X0239614Y0078160D02*
X0249656Y0078160D01*
X0251389Y0076561D02*
X0240200Y0076561D01*
X0240083Y0074963D02*
X0250750Y0074963D01*
X0249459Y0073364D02*
X0239138Y0073364D01*
X0239725Y0068569D02*
X0249487Y0068569D01*
X0250817Y0066970D02*
X0240499Y0066970D01*
X0228862Y0073364D02*
X0150400Y0073364D01*
X0150364Y0074963D02*
X0227917Y0074963D01*
X0227800Y0076561D02*
X0149661Y0076561D01*
X0147455Y0078160D02*
X0228386Y0078160D01*
X0230744Y0079758D02*
X0062300Y0079758D01*
X0062300Y0078160D02*
X0133591Y0078160D01*
X0133484Y0078105D02*
X0132873Y0077661D01*
X0132339Y0077127D01*
X0131895Y0076516D01*
X0131552Y0075843D01*
X0131318Y0075124D01*
X0131200Y0074378D01*
X0131200Y0074200D01*
X0135800Y0074200D01*
X0135800Y0078800D01*
X0135622Y0078800D01*
X0134876Y0078682D01*
X0134157Y0078448D01*
X0133484Y0078105D01*
X0131928Y0076561D02*
X0062300Y0076561D01*
X0062300Y0074963D02*
X0131293Y0074963D01*
X0131200Y0073800D02*
X0131200Y0073622D01*
X0131318Y0072876D01*
X0131552Y0072157D01*
X0131895Y0071484D01*
X0132339Y0070873D01*
X0132873Y0070339D01*
X0133484Y0069895D01*
X0134157Y0069552D01*
X0134876Y0069318D01*
X0135622Y0069200D01*
X0135800Y0069200D01*
X0135800Y0073800D01*
X0131200Y0073800D01*
X0131241Y0073364D02*
X0062300Y0073364D01*
X0062300Y0071766D02*
X0131751Y0071766D01*
X0133109Y0070167D02*
X0062300Y0070167D01*
X0072025Y0049453D02*
X0073955Y0050253D01*
X0076045Y0050253D01*
X0077975Y0049453D01*
X0079453Y0047975D01*
X0080253Y0046045D01*
X0080253Y0043955D01*
X0079453Y0042025D01*
X0077975Y0040547D01*
X0076045Y0039747D01*
X0073955Y0039747D01*
X0072025Y0040547D01*
X0070547Y0042025D01*
X0069747Y0043955D01*
X0069747Y0046045D01*
X0070547Y0047975D01*
X0072025Y0049453D01*
X0071958Y0049387D02*
X0062612Y0049387D01*
X0063040Y0047788D02*
X0070469Y0047788D01*
X0069807Y0046190D02*
X0063526Y0046190D01*
X0064449Y0044591D02*
X0069747Y0044591D01*
X0070146Y0042993D02*
X0065396Y0042993D01*
X0066995Y0041394D02*
X0071177Y0041394D01*
X0068990Y0039796D02*
X0073839Y0039796D01*
X0076161Y0039796D02*
X0245839Y0039796D01*
X0243177Y0041394D02*
X0078823Y0041394D01*
X0079854Y0042993D02*
X0242146Y0042993D01*
X0241747Y0044591D02*
X0080253Y0044591D01*
X0080193Y0046190D02*
X0241807Y0046190D01*
X0242469Y0047788D02*
X0079531Y0047788D01*
X0078042Y0049387D02*
X0243958Y0049387D01*
X0240621Y0082955D02*
X0249290Y0082955D01*
X0250341Y0084554D02*
X0239914Y0084554D01*
X0259193Y0097342D02*
X0211029Y0097342D01*
X0212627Y0098940D02*
X0258765Y0098940D01*
X0258054Y0100539D02*
X0214226Y0100539D01*
X0215824Y0102137D02*
X0257131Y0102137D01*
X0255875Y0103736D02*
X0217423Y0103736D01*
X0219021Y0105334D02*
X0254277Y0105334D01*
X0251748Y0106933D02*
X0220620Y0106933D01*
X0222219Y0108532D02*
X0247078Y0108532D01*
X0238700Y0110130D02*
X0223817Y0110130D01*
X0225416Y0111729D02*
X0238700Y0111729D01*
X0238700Y0113327D02*
X0238201Y0113327D01*
X0233799Y0113327D02*
X0228201Y0113327D01*
X0229461Y0114926D02*
X0232539Y0114926D01*
X0232200Y0116524D02*
X0229800Y0116524D01*
X0232779Y0118653D02*
X0233847Y0119721D01*
X0237035Y0121320D02*
X0215591Y0121320D01*
X0211409Y0121320D02*
X0110591Y0121320D01*
X0112707Y0119721D02*
X0118994Y0119721D01*
X0117585Y0118123D02*
X0113513Y0118123D01*
X0113753Y0116524D02*
X0117200Y0116524D01*
X0117514Y0114926D02*
X0113533Y0114926D01*
X0112756Y0113327D02*
X0118738Y0113327D01*
X0121351Y0111729D02*
X0110707Y0111729D01*
X0106293Y0111729D02*
X0093458Y0111729D01*
X0093799Y0113327D02*
X0091860Y0113327D01*
X0092539Y0114926D02*
X0090261Y0114926D01*
X0089800Y0116524D02*
X0092200Y0116524D01*
X0098201Y0113327D02*
X0104244Y0113327D01*
X0103467Y0114926D02*
X0099461Y0114926D01*
X0099800Y0116524D02*
X0103247Y0116524D01*
X0106409Y0121320D02*
X0084965Y0121320D01*
X0085887Y0122918D02*
X0236113Y0122918D01*
X0234692Y0124517D02*
X0087308Y0124517D01*
X0089086Y0126115D02*
X0232914Y0126115D01*
X0230032Y0127714D02*
X0091968Y0127714D01*
X0123006Y0119721D02*
X0128786Y0119721D01*
X0127533Y0118123D02*
X0124416Y0118123D01*
X0124800Y0116524D02*
X0127200Y0116524D01*
X0127564Y0114926D02*
X0124487Y0114926D01*
X0125138Y0113327D02*
X0128877Y0113327D01*
X0126753Y0111729D02*
X0154100Y0111729D01*
X0154100Y0110130D02*
X0128367Y0110130D01*
X0129982Y0108532D02*
X0154100Y0108532D01*
X0154100Y0106933D02*
X0131597Y0106933D01*
X0126195Y0106933D02*
X0098254Y0106933D01*
X0096655Y0108532D02*
X0124581Y0108532D01*
X0122966Y0110130D02*
X0095057Y0110130D01*
X0091281Y0108532D02*
X0074922Y0108532D01*
X0070252Y0106933D02*
X0092880Y0106933D01*
X0089683Y0110130D02*
X0083300Y0110130D01*
X0083300Y0111729D02*
X0088084Y0111729D01*
X0083799Y0113327D02*
X0083300Y0113327D01*
X0133122Y0113327D02*
X0153799Y0113327D01*
X0152539Y0114926D02*
X0134435Y0114926D01*
X0134800Y0116524D02*
X0152200Y0116524D01*
X0152779Y0118653D02*
X0153847Y0119721D01*
X0159800Y0116524D02*
X0162200Y0116524D01*
X0162539Y0114926D02*
X0159461Y0114926D01*
X0158201Y0113327D02*
X0163799Y0113327D01*
X0168201Y0113327D02*
X0186862Y0113327D01*
X0187539Y0114926D02*
X0169461Y0114926D01*
X0169800Y0116524D02*
X0187200Y0116524D01*
X0187779Y0118653D02*
X0188847Y0119721D01*
X0194800Y0116524D02*
X0197200Y0116524D01*
X0197539Y0114926D02*
X0194461Y0114926D01*
X0193201Y0113327D02*
X0198799Y0113327D01*
X0203201Y0113327D02*
X0209244Y0113327D01*
X0208467Y0114926D02*
X0204461Y0114926D01*
X0204800Y0116524D02*
X0208247Y0116524D01*
X0211293Y0111729D02*
X0190649Y0111729D01*
X0189034Y0110130D02*
X0218443Y0110130D01*
X0216845Y0108532D02*
X0187419Y0108532D01*
X0185805Y0106933D02*
X0215246Y0106933D01*
X0213648Y0105334D02*
X0184190Y0105334D01*
X0182575Y0103736D02*
X0212049Y0103736D01*
X0210450Y0102137D02*
X0180961Y0102137D01*
X0179346Y0100539D02*
X0183340Y0100539D01*
X0181830Y0098940D02*
X0177731Y0098940D01*
X0176117Y0097342D02*
X0180321Y0097342D01*
X0173945Y0100539D02*
X0157900Y0100539D01*
X0157900Y0102137D02*
X0175559Y0102137D01*
X0177174Y0103736D02*
X0157900Y0103736D01*
X0157900Y0105334D02*
X0178789Y0105334D01*
X0180403Y0106933D02*
X0157900Y0106933D01*
X0157900Y0108532D02*
X0182018Y0108532D01*
X0183633Y0110130D02*
X0157900Y0110130D01*
X0157900Y0111729D02*
X0185247Y0111729D01*
X0163847Y0119721D02*
X0162779Y0118653D01*
X0154100Y0105334D02*
X0133211Y0105334D01*
X0134826Y0103736D02*
X0154100Y0103736D01*
X0154100Y0102137D02*
X0136441Y0102137D01*
X0138055Y0100539D02*
X0154100Y0100539D01*
X0154100Y0098940D02*
X0139670Y0098940D01*
X0141284Y0097342D02*
X0154100Y0097342D01*
X0157900Y0097342D02*
X0170716Y0097342D01*
X0172330Y0098940D02*
X0157900Y0098940D01*
X0144545Y0078160D02*
X0138409Y0078160D01*
X0138516Y0078105D02*
X0137843Y0078448D01*
X0137124Y0078682D01*
X0136378Y0078800D01*
X0136200Y0078800D01*
X0136200Y0074200D01*
X0135800Y0074200D01*
X0135800Y0073800D01*
X0136200Y0073800D01*
X0136200Y0074200D01*
X0140800Y0074200D01*
X0140800Y0074378D01*
X0140682Y0075124D01*
X0140448Y0075843D01*
X0140105Y0076516D01*
X0139661Y0077127D01*
X0139127Y0077661D01*
X0138516Y0078105D01*
X0140072Y0076561D02*
X0142339Y0076561D01*
X0141636Y0074963D02*
X0140707Y0074963D01*
X0140800Y0073800D02*
X0136200Y0073800D01*
X0136200Y0069200D01*
X0136378Y0069200D01*
X0137124Y0069318D01*
X0137843Y0069552D01*
X0138516Y0069895D01*
X0139127Y0070339D01*
X0139661Y0070873D01*
X0140105Y0071484D01*
X0140448Y0072157D01*
X0140682Y0072876D01*
X0140800Y0073622D01*
X0140800Y0073800D01*
X0140759Y0073364D02*
X0141600Y0073364D01*
X0142163Y0071766D02*
X0140249Y0071766D01*
X0138891Y0070167D02*
X0143755Y0070167D01*
X0148245Y0070167D02*
X0148324Y0070167D01*
X0136200Y0070167D02*
X0135800Y0070167D01*
X0135800Y0071766D02*
X0136200Y0071766D01*
X0136200Y0073364D02*
X0135800Y0073364D01*
X0135800Y0074963D02*
X0136200Y0074963D01*
X0136200Y0076561D02*
X0135800Y0076561D01*
X0135800Y0078160D02*
X0136200Y0078160D01*
X0215707Y0111729D02*
X0220042Y0111729D01*
X0221640Y0113327D02*
X0217756Y0113327D01*
X0218533Y0114926D02*
X0222539Y0114926D01*
X0222200Y0116524D02*
X0218753Y0116524D01*
X0222779Y0118653D02*
X0223847Y0119721D01*
D15*
X0226000Y0116500D02*
X0226000Y0115000D01*
X0210000Y0099000D01*
X0184500Y0099000D01*
X0176000Y0090000D01*
X0166000Y0090000D02*
X0191000Y0114750D01*
X0191000Y0116500D01*
X0156000Y0116500D02*
X0156000Y0090000D01*
X0146000Y0090000D02*
X0121000Y0114750D01*
X0121000Y0116439D01*
X0112500Y0090000D02*
X0086000Y0116500D01*
X0112500Y0090000D02*
X0136000Y0090000D01*
X0146000Y0074000D02*
X0150500Y0071000D01*
X0254000Y0071000D01*
X0254000Y0081000D02*
X0240000Y0081000D01*
X0234000Y0086000D01*
M02*
