G75*
%MOIN*%
%OFA0B0*%
%FSLAX25Y25*%
%IPPOS*%
%LPD*%
%AMOC8*
5,1,8,0,0,1.08239X$1,22.5*
%
%ADD10C,0.00000*%
D10*
X0077000Y0035000D02*
X0245000Y0035000D01*
X0244047Y0045000D02*
X0244049Y0045108D01*
X0244055Y0045217D01*
X0244065Y0045325D01*
X0244079Y0045432D01*
X0244097Y0045539D01*
X0244118Y0045646D01*
X0244144Y0045751D01*
X0244174Y0045856D01*
X0244207Y0045959D01*
X0244244Y0046061D01*
X0244285Y0046161D01*
X0244329Y0046260D01*
X0244378Y0046358D01*
X0244429Y0046453D01*
X0244484Y0046546D01*
X0244543Y0046638D01*
X0244605Y0046727D01*
X0244670Y0046814D01*
X0244738Y0046898D01*
X0244809Y0046980D01*
X0244883Y0047059D01*
X0244960Y0047135D01*
X0245040Y0047209D01*
X0245123Y0047279D01*
X0245208Y0047347D01*
X0245295Y0047411D01*
X0245385Y0047472D01*
X0245477Y0047530D01*
X0245571Y0047584D01*
X0245667Y0047635D01*
X0245764Y0047682D01*
X0245864Y0047726D01*
X0245965Y0047766D01*
X0246067Y0047802D01*
X0246170Y0047834D01*
X0246275Y0047863D01*
X0246381Y0047887D01*
X0246487Y0047908D01*
X0246594Y0047925D01*
X0246702Y0047938D01*
X0246810Y0047947D01*
X0246919Y0047952D01*
X0247027Y0047953D01*
X0247136Y0047950D01*
X0247244Y0047943D01*
X0247352Y0047932D01*
X0247459Y0047917D01*
X0247566Y0047898D01*
X0247672Y0047875D01*
X0247777Y0047849D01*
X0247882Y0047818D01*
X0247984Y0047784D01*
X0248086Y0047746D01*
X0248186Y0047704D01*
X0248285Y0047659D01*
X0248382Y0047610D01*
X0248476Y0047557D01*
X0248569Y0047501D01*
X0248660Y0047442D01*
X0248749Y0047379D01*
X0248835Y0047314D01*
X0248919Y0047245D01*
X0249000Y0047173D01*
X0249078Y0047098D01*
X0249154Y0047020D01*
X0249227Y0046939D01*
X0249297Y0046856D01*
X0249363Y0046771D01*
X0249427Y0046683D01*
X0249487Y0046592D01*
X0249544Y0046500D01*
X0249597Y0046405D01*
X0249647Y0046309D01*
X0249693Y0046211D01*
X0249736Y0046111D01*
X0249775Y0046010D01*
X0249810Y0045907D01*
X0249842Y0045804D01*
X0249869Y0045699D01*
X0249893Y0045593D01*
X0249913Y0045486D01*
X0249929Y0045379D01*
X0249941Y0045271D01*
X0249949Y0045163D01*
X0249953Y0045054D01*
X0249953Y0044946D01*
X0249949Y0044837D01*
X0249941Y0044729D01*
X0249929Y0044621D01*
X0249913Y0044514D01*
X0249893Y0044407D01*
X0249869Y0044301D01*
X0249842Y0044196D01*
X0249810Y0044093D01*
X0249775Y0043990D01*
X0249736Y0043889D01*
X0249693Y0043789D01*
X0249647Y0043691D01*
X0249597Y0043595D01*
X0249544Y0043500D01*
X0249487Y0043408D01*
X0249427Y0043317D01*
X0249363Y0043229D01*
X0249297Y0043144D01*
X0249227Y0043061D01*
X0249154Y0042980D01*
X0249078Y0042902D01*
X0249000Y0042827D01*
X0248919Y0042755D01*
X0248835Y0042686D01*
X0248749Y0042621D01*
X0248660Y0042558D01*
X0248569Y0042499D01*
X0248477Y0042443D01*
X0248382Y0042390D01*
X0248285Y0042341D01*
X0248186Y0042296D01*
X0248086Y0042254D01*
X0247984Y0042216D01*
X0247882Y0042182D01*
X0247777Y0042151D01*
X0247672Y0042125D01*
X0247566Y0042102D01*
X0247459Y0042083D01*
X0247352Y0042068D01*
X0247244Y0042057D01*
X0247136Y0042050D01*
X0247027Y0042047D01*
X0246919Y0042048D01*
X0246810Y0042053D01*
X0246702Y0042062D01*
X0246594Y0042075D01*
X0246487Y0042092D01*
X0246381Y0042113D01*
X0246275Y0042137D01*
X0246170Y0042166D01*
X0246067Y0042198D01*
X0245965Y0042234D01*
X0245864Y0042274D01*
X0245764Y0042318D01*
X0245667Y0042365D01*
X0245571Y0042416D01*
X0245477Y0042470D01*
X0245385Y0042528D01*
X0245295Y0042589D01*
X0245208Y0042653D01*
X0245123Y0042721D01*
X0245040Y0042791D01*
X0244960Y0042865D01*
X0244883Y0042941D01*
X0244809Y0043020D01*
X0244738Y0043102D01*
X0244670Y0043186D01*
X0244605Y0043273D01*
X0244543Y0043362D01*
X0244484Y0043454D01*
X0244429Y0043547D01*
X0244378Y0043642D01*
X0244329Y0043740D01*
X0244285Y0043839D01*
X0244244Y0043939D01*
X0244207Y0044041D01*
X0244174Y0044144D01*
X0244144Y0044249D01*
X0244118Y0044354D01*
X0244097Y0044461D01*
X0244079Y0044568D01*
X0244065Y0044675D01*
X0244055Y0044783D01*
X0244049Y0044892D01*
X0244047Y0045000D01*
X0245000Y0035000D02*
X0245411Y0035005D01*
X0245821Y0035020D01*
X0246231Y0035045D01*
X0246641Y0035079D01*
X0247049Y0035124D01*
X0247456Y0035178D01*
X0247862Y0035243D01*
X0248266Y0035317D01*
X0248668Y0035401D01*
X0249068Y0035494D01*
X0249466Y0035597D01*
X0249861Y0035710D01*
X0250253Y0035832D01*
X0250642Y0035964D01*
X0251028Y0036105D01*
X0251411Y0036255D01*
X0251789Y0036415D01*
X0252164Y0036583D01*
X0252534Y0036761D01*
X0252900Y0036947D01*
X0253262Y0037143D01*
X0253618Y0037347D01*
X0253970Y0037559D01*
X0254316Y0037780D01*
X0254657Y0038009D01*
X0254992Y0038247D01*
X0255322Y0038492D01*
X0255645Y0038746D01*
X0255962Y0039007D01*
X0256273Y0039275D01*
X0256577Y0039551D01*
X0256875Y0039835D01*
X0257165Y0040125D01*
X0257449Y0040423D01*
X0257725Y0040727D01*
X0257993Y0041038D01*
X0258254Y0041355D01*
X0258508Y0041678D01*
X0258753Y0042008D01*
X0258991Y0042343D01*
X0259220Y0042684D01*
X0259441Y0043030D01*
X0259653Y0043382D01*
X0259857Y0043738D01*
X0260053Y0044100D01*
X0260239Y0044466D01*
X0260417Y0044836D01*
X0260585Y0045211D01*
X0260745Y0045589D01*
X0260895Y0045972D01*
X0261036Y0046358D01*
X0261168Y0046747D01*
X0261290Y0047139D01*
X0261403Y0047534D01*
X0261506Y0047932D01*
X0261599Y0048332D01*
X0261683Y0048734D01*
X0261757Y0049138D01*
X0261822Y0049544D01*
X0261876Y0049951D01*
X0261921Y0050359D01*
X0261955Y0050769D01*
X0261980Y0051179D01*
X0261995Y0051589D01*
X0262000Y0052000D01*
X0262000Y0094000D01*
X0261995Y0094411D01*
X0261980Y0094821D01*
X0261955Y0095231D01*
X0261921Y0095641D01*
X0261876Y0096049D01*
X0261822Y0096456D01*
X0261757Y0096862D01*
X0261683Y0097266D01*
X0261599Y0097668D01*
X0261506Y0098068D01*
X0261403Y0098466D01*
X0261290Y0098861D01*
X0261168Y0099253D01*
X0261036Y0099642D01*
X0260895Y0100028D01*
X0260745Y0100411D01*
X0260585Y0100789D01*
X0260417Y0101164D01*
X0260239Y0101534D01*
X0260053Y0101900D01*
X0259857Y0102262D01*
X0259653Y0102618D01*
X0259441Y0102970D01*
X0259220Y0103316D01*
X0258991Y0103657D01*
X0258753Y0103992D01*
X0258508Y0104322D01*
X0258254Y0104645D01*
X0257993Y0104962D01*
X0257725Y0105273D01*
X0257449Y0105577D01*
X0257165Y0105875D01*
X0256875Y0106165D01*
X0256577Y0106449D01*
X0256273Y0106725D01*
X0255962Y0106993D01*
X0255645Y0107254D01*
X0255322Y0107508D01*
X0254992Y0107753D01*
X0254657Y0107991D01*
X0254316Y0108220D01*
X0253970Y0108441D01*
X0253618Y0108653D01*
X0253262Y0108857D01*
X0252900Y0109053D01*
X0252534Y0109239D01*
X0252164Y0109417D01*
X0251789Y0109585D01*
X0251411Y0109745D01*
X0251028Y0109895D01*
X0250642Y0110036D01*
X0250253Y0110168D01*
X0249861Y0110290D01*
X0249466Y0110403D01*
X0249068Y0110506D01*
X0248668Y0110599D01*
X0248266Y0110683D01*
X0247862Y0110757D01*
X0247456Y0110822D01*
X0247049Y0110876D01*
X0246641Y0110921D01*
X0246231Y0110955D01*
X0245821Y0110980D01*
X0245411Y0110995D01*
X0245000Y0111000D01*
X0241000Y0111000D01*
X0241000Y0115000D01*
X0240995Y0115387D01*
X0240981Y0115773D01*
X0240958Y0116159D01*
X0240925Y0116544D01*
X0240883Y0116929D01*
X0240832Y0117312D01*
X0240772Y0117694D01*
X0240702Y0118074D01*
X0240623Y0118453D01*
X0240535Y0118829D01*
X0240438Y0119203D01*
X0240332Y0119575D01*
X0240217Y0119944D01*
X0240093Y0120311D01*
X0239960Y0120674D01*
X0239819Y0121034D01*
X0239669Y0121390D01*
X0239510Y0121742D01*
X0239343Y0122091D01*
X0239167Y0122436D01*
X0238983Y0122776D01*
X0238792Y0123111D01*
X0238591Y0123442D01*
X0238384Y0123768D01*
X0238168Y0124089D01*
X0237944Y0124405D01*
X0237713Y0124715D01*
X0237475Y0125019D01*
X0237229Y0125317D01*
X0236976Y0125610D01*
X0236716Y0125896D01*
X0236450Y0126176D01*
X0236176Y0126450D01*
X0235896Y0126716D01*
X0235610Y0126976D01*
X0235317Y0127229D01*
X0235019Y0127475D01*
X0234715Y0127713D01*
X0234405Y0127944D01*
X0234089Y0128168D01*
X0233768Y0128384D01*
X0233442Y0128591D01*
X0233111Y0128792D01*
X0232776Y0128983D01*
X0232436Y0129167D01*
X0232091Y0129343D01*
X0231742Y0129510D01*
X0231390Y0129669D01*
X0231034Y0129819D01*
X0230674Y0129960D01*
X0230311Y0130093D01*
X0229944Y0130217D01*
X0229575Y0130332D01*
X0229203Y0130438D01*
X0228829Y0130535D01*
X0228453Y0130623D01*
X0228074Y0130702D01*
X0227694Y0130772D01*
X0227312Y0130832D01*
X0226929Y0130883D01*
X0226544Y0130925D01*
X0226159Y0130958D01*
X0225773Y0130981D01*
X0225387Y0130995D01*
X0225000Y0131000D01*
X0097000Y0131000D01*
X0105547Y0116500D02*
X0105549Y0116608D01*
X0105555Y0116717D01*
X0105565Y0116825D01*
X0105579Y0116932D01*
X0105597Y0117039D01*
X0105618Y0117146D01*
X0105644Y0117251D01*
X0105674Y0117356D01*
X0105707Y0117459D01*
X0105744Y0117561D01*
X0105785Y0117661D01*
X0105829Y0117760D01*
X0105878Y0117858D01*
X0105929Y0117953D01*
X0105984Y0118046D01*
X0106043Y0118138D01*
X0106105Y0118227D01*
X0106170Y0118314D01*
X0106238Y0118398D01*
X0106309Y0118480D01*
X0106383Y0118559D01*
X0106460Y0118635D01*
X0106540Y0118709D01*
X0106623Y0118779D01*
X0106708Y0118847D01*
X0106795Y0118911D01*
X0106885Y0118972D01*
X0106977Y0119030D01*
X0107071Y0119084D01*
X0107167Y0119135D01*
X0107264Y0119182D01*
X0107364Y0119226D01*
X0107465Y0119266D01*
X0107567Y0119302D01*
X0107670Y0119334D01*
X0107775Y0119363D01*
X0107881Y0119387D01*
X0107987Y0119408D01*
X0108094Y0119425D01*
X0108202Y0119438D01*
X0108310Y0119447D01*
X0108419Y0119452D01*
X0108527Y0119453D01*
X0108636Y0119450D01*
X0108744Y0119443D01*
X0108852Y0119432D01*
X0108959Y0119417D01*
X0109066Y0119398D01*
X0109172Y0119375D01*
X0109277Y0119349D01*
X0109382Y0119318D01*
X0109484Y0119284D01*
X0109586Y0119246D01*
X0109686Y0119204D01*
X0109785Y0119159D01*
X0109882Y0119110D01*
X0109976Y0119057D01*
X0110069Y0119001D01*
X0110160Y0118942D01*
X0110249Y0118879D01*
X0110335Y0118814D01*
X0110419Y0118745D01*
X0110500Y0118673D01*
X0110578Y0118598D01*
X0110654Y0118520D01*
X0110727Y0118439D01*
X0110797Y0118356D01*
X0110863Y0118271D01*
X0110927Y0118183D01*
X0110987Y0118092D01*
X0111044Y0118000D01*
X0111097Y0117905D01*
X0111147Y0117809D01*
X0111193Y0117711D01*
X0111236Y0117611D01*
X0111275Y0117510D01*
X0111310Y0117407D01*
X0111342Y0117304D01*
X0111369Y0117199D01*
X0111393Y0117093D01*
X0111413Y0116986D01*
X0111429Y0116879D01*
X0111441Y0116771D01*
X0111449Y0116663D01*
X0111453Y0116554D01*
X0111453Y0116446D01*
X0111449Y0116337D01*
X0111441Y0116229D01*
X0111429Y0116121D01*
X0111413Y0116014D01*
X0111393Y0115907D01*
X0111369Y0115801D01*
X0111342Y0115696D01*
X0111310Y0115593D01*
X0111275Y0115490D01*
X0111236Y0115389D01*
X0111193Y0115289D01*
X0111147Y0115191D01*
X0111097Y0115095D01*
X0111044Y0115000D01*
X0110987Y0114908D01*
X0110927Y0114817D01*
X0110863Y0114729D01*
X0110797Y0114644D01*
X0110727Y0114561D01*
X0110654Y0114480D01*
X0110578Y0114402D01*
X0110500Y0114327D01*
X0110419Y0114255D01*
X0110335Y0114186D01*
X0110249Y0114121D01*
X0110160Y0114058D01*
X0110069Y0113999D01*
X0109977Y0113943D01*
X0109882Y0113890D01*
X0109785Y0113841D01*
X0109686Y0113796D01*
X0109586Y0113754D01*
X0109484Y0113716D01*
X0109382Y0113682D01*
X0109277Y0113651D01*
X0109172Y0113625D01*
X0109066Y0113602D01*
X0108959Y0113583D01*
X0108852Y0113568D01*
X0108744Y0113557D01*
X0108636Y0113550D01*
X0108527Y0113547D01*
X0108419Y0113548D01*
X0108310Y0113553D01*
X0108202Y0113562D01*
X0108094Y0113575D01*
X0107987Y0113592D01*
X0107881Y0113613D01*
X0107775Y0113637D01*
X0107670Y0113666D01*
X0107567Y0113698D01*
X0107465Y0113734D01*
X0107364Y0113774D01*
X0107264Y0113818D01*
X0107167Y0113865D01*
X0107071Y0113916D01*
X0106977Y0113970D01*
X0106885Y0114028D01*
X0106795Y0114089D01*
X0106708Y0114153D01*
X0106623Y0114221D01*
X0106540Y0114291D01*
X0106460Y0114365D01*
X0106383Y0114441D01*
X0106309Y0114520D01*
X0106238Y0114602D01*
X0106170Y0114686D01*
X0106105Y0114773D01*
X0106043Y0114862D01*
X0105984Y0114954D01*
X0105929Y0115047D01*
X0105878Y0115142D01*
X0105829Y0115240D01*
X0105785Y0115339D01*
X0105744Y0115439D01*
X0105707Y0115541D01*
X0105674Y0115644D01*
X0105644Y0115749D01*
X0105618Y0115854D01*
X0105597Y0115961D01*
X0105579Y0116068D01*
X0105565Y0116175D01*
X0105555Y0116283D01*
X0105549Y0116392D01*
X0105547Y0116500D01*
X0097000Y0131000D02*
X0096613Y0130995D01*
X0096227Y0130981D01*
X0095841Y0130958D01*
X0095456Y0130925D01*
X0095071Y0130883D01*
X0094688Y0130832D01*
X0094306Y0130772D01*
X0093926Y0130702D01*
X0093547Y0130623D01*
X0093171Y0130535D01*
X0092797Y0130438D01*
X0092425Y0130332D01*
X0092056Y0130217D01*
X0091689Y0130093D01*
X0091326Y0129960D01*
X0090966Y0129819D01*
X0090610Y0129669D01*
X0090258Y0129510D01*
X0089909Y0129343D01*
X0089564Y0129167D01*
X0089224Y0128983D01*
X0088889Y0128792D01*
X0088558Y0128591D01*
X0088232Y0128384D01*
X0087911Y0128168D01*
X0087595Y0127944D01*
X0087285Y0127713D01*
X0086981Y0127475D01*
X0086683Y0127229D01*
X0086390Y0126976D01*
X0086104Y0126716D01*
X0085824Y0126450D01*
X0085550Y0126176D01*
X0085284Y0125896D01*
X0085024Y0125610D01*
X0084771Y0125317D01*
X0084525Y0125019D01*
X0084287Y0124715D01*
X0084056Y0124405D01*
X0083832Y0124089D01*
X0083616Y0123768D01*
X0083409Y0123442D01*
X0083208Y0123111D01*
X0083017Y0122776D01*
X0082833Y0122436D01*
X0082657Y0122091D01*
X0082490Y0121742D01*
X0082331Y0121390D01*
X0082181Y0121034D01*
X0082040Y0120674D01*
X0081907Y0120311D01*
X0081783Y0119944D01*
X0081668Y0119575D01*
X0081562Y0119203D01*
X0081465Y0118829D01*
X0081377Y0118453D01*
X0081298Y0118074D01*
X0081228Y0117694D01*
X0081168Y0117312D01*
X0081117Y0116929D01*
X0081075Y0116544D01*
X0081042Y0116159D01*
X0081019Y0115773D01*
X0081005Y0115387D01*
X0081000Y0115000D01*
X0081000Y0111000D01*
X0077000Y0111000D01*
X0076589Y0110995D01*
X0076179Y0110980D01*
X0075769Y0110955D01*
X0075359Y0110921D01*
X0074951Y0110876D01*
X0074544Y0110822D01*
X0074138Y0110757D01*
X0073734Y0110683D01*
X0073332Y0110599D01*
X0072932Y0110506D01*
X0072534Y0110403D01*
X0072139Y0110290D01*
X0071747Y0110168D01*
X0071358Y0110036D01*
X0070972Y0109895D01*
X0070589Y0109745D01*
X0070211Y0109585D01*
X0069836Y0109417D01*
X0069466Y0109239D01*
X0069100Y0109053D01*
X0068738Y0108857D01*
X0068382Y0108653D01*
X0068030Y0108441D01*
X0067684Y0108220D01*
X0067343Y0107991D01*
X0067008Y0107753D01*
X0066678Y0107508D01*
X0066355Y0107254D01*
X0066038Y0106993D01*
X0065727Y0106725D01*
X0065423Y0106449D01*
X0065125Y0106165D01*
X0064835Y0105875D01*
X0064551Y0105577D01*
X0064275Y0105273D01*
X0064007Y0104962D01*
X0063746Y0104645D01*
X0063492Y0104322D01*
X0063247Y0103992D01*
X0063009Y0103657D01*
X0062780Y0103316D01*
X0062559Y0102970D01*
X0062347Y0102618D01*
X0062143Y0102262D01*
X0061947Y0101900D01*
X0061761Y0101534D01*
X0061583Y0101164D01*
X0061415Y0100789D01*
X0061255Y0100411D01*
X0061105Y0100028D01*
X0060964Y0099642D01*
X0060832Y0099253D01*
X0060710Y0098861D01*
X0060597Y0098466D01*
X0060494Y0098068D01*
X0060401Y0097668D01*
X0060317Y0097266D01*
X0060243Y0096862D01*
X0060178Y0096456D01*
X0060124Y0096049D01*
X0060079Y0095641D01*
X0060045Y0095231D01*
X0060020Y0094821D01*
X0060005Y0094411D01*
X0060000Y0094000D01*
X0060000Y0052000D01*
X0072047Y0045000D02*
X0072049Y0045108D01*
X0072055Y0045217D01*
X0072065Y0045325D01*
X0072079Y0045432D01*
X0072097Y0045539D01*
X0072118Y0045646D01*
X0072144Y0045751D01*
X0072174Y0045856D01*
X0072207Y0045959D01*
X0072244Y0046061D01*
X0072285Y0046161D01*
X0072329Y0046260D01*
X0072378Y0046358D01*
X0072429Y0046453D01*
X0072484Y0046546D01*
X0072543Y0046638D01*
X0072605Y0046727D01*
X0072670Y0046814D01*
X0072738Y0046898D01*
X0072809Y0046980D01*
X0072883Y0047059D01*
X0072960Y0047135D01*
X0073040Y0047209D01*
X0073123Y0047279D01*
X0073208Y0047347D01*
X0073295Y0047411D01*
X0073385Y0047472D01*
X0073477Y0047530D01*
X0073571Y0047584D01*
X0073667Y0047635D01*
X0073764Y0047682D01*
X0073864Y0047726D01*
X0073965Y0047766D01*
X0074067Y0047802D01*
X0074170Y0047834D01*
X0074275Y0047863D01*
X0074381Y0047887D01*
X0074487Y0047908D01*
X0074594Y0047925D01*
X0074702Y0047938D01*
X0074810Y0047947D01*
X0074919Y0047952D01*
X0075027Y0047953D01*
X0075136Y0047950D01*
X0075244Y0047943D01*
X0075352Y0047932D01*
X0075459Y0047917D01*
X0075566Y0047898D01*
X0075672Y0047875D01*
X0075777Y0047849D01*
X0075882Y0047818D01*
X0075984Y0047784D01*
X0076086Y0047746D01*
X0076186Y0047704D01*
X0076285Y0047659D01*
X0076382Y0047610D01*
X0076476Y0047557D01*
X0076569Y0047501D01*
X0076660Y0047442D01*
X0076749Y0047379D01*
X0076835Y0047314D01*
X0076919Y0047245D01*
X0077000Y0047173D01*
X0077078Y0047098D01*
X0077154Y0047020D01*
X0077227Y0046939D01*
X0077297Y0046856D01*
X0077363Y0046771D01*
X0077427Y0046683D01*
X0077487Y0046592D01*
X0077544Y0046500D01*
X0077597Y0046405D01*
X0077647Y0046309D01*
X0077693Y0046211D01*
X0077736Y0046111D01*
X0077775Y0046010D01*
X0077810Y0045907D01*
X0077842Y0045804D01*
X0077869Y0045699D01*
X0077893Y0045593D01*
X0077913Y0045486D01*
X0077929Y0045379D01*
X0077941Y0045271D01*
X0077949Y0045163D01*
X0077953Y0045054D01*
X0077953Y0044946D01*
X0077949Y0044837D01*
X0077941Y0044729D01*
X0077929Y0044621D01*
X0077913Y0044514D01*
X0077893Y0044407D01*
X0077869Y0044301D01*
X0077842Y0044196D01*
X0077810Y0044093D01*
X0077775Y0043990D01*
X0077736Y0043889D01*
X0077693Y0043789D01*
X0077647Y0043691D01*
X0077597Y0043595D01*
X0077544Y0043500D01*
X0077487Y0043408D01*
X0077427Y0043317D01*
X0077363Y0043229D01*
X0077297Y0043144D01*
X0077227Y0043061D01*
X0077154Y0042980D01*
X0077078Y0042902D01*
X0077000Y0042827D01*
X0076919Y0042755D01*
X0076835Y0042686D01*
X0076749Y0042621D01*
X0076660Y0042558D01*
X0076569Y0042499D01*
X0076477Y0042443D01*
X0076382Y0042390D01*
X0076285Y0042341D01*
X0076186Y0042296D01*
X0076086Y0042254D01*
X0075984Y0042216D01*
X0075882Y0042182D01*
X0075777Y0042151D01*
X0075672Y0042125D01*
X0075566Y0042102D01*
X0075459Y0042083D01*
X0075352Y0042068D01*
X0075244Y0042057D01*
X0075136Y0042050D01*
X0075027Y0042047D01*
X0074919Y0042048D01*
X0074810Y0042053D01*
X0074702Y0042062D01*
X0074594Y0042075D01*
X0074487Y0042092D01*
X0074381Y0042113D01*
X0074275Y0042137D01*
X0074170Y0042166D01*
X0074067Y0042198D01*
X0073965Y0042234D01*
X0073864Y0042274D01*
X0073764Y0042318D01*
X0073667Y0042365D01*
X0073571Y0042416D01*
X0073477Y0042470D01*
X0073385Y0042528D01*
X0073295Y0042589D01*
X0073208Y0042653D01*
X0073123Y0042721D01*
X0073040Y0042791D01*
X0072960Y0042865D01*
X0072883Y0042941D01*
X0072809Y0043020D01*
X0072738Y0043102D01*
X0072670Y0043186D01*
X0072605Y0043273D01*
X0072543Y0043362D01*
X0072484Y0043454D01*
X0072429Y0043547D01*
X0072378Y0043642D01*
X0072329Y0043740D01*
X0072285Y0043839D01*
X0072244Y0043939D01*
X0072207Y0044041D01*
X0072174Y0044144D01*
X0072144Y0044249D01*
X0072118Y0044354D01*
X0072097Y0044461D01*
X0072079Y0044568D01*
X0072065Y0044675D01*
X0072055Y0044783D01*
X0072049Y0044892D01*
X0072047Y0045000D01*
X0077000Y0035000D02*
X0076589Y0035005D01*
X0076179Y0035020D01*
X0075769Y0035045D01*
X0075359Y0035079D01*
X0074951Y0035124D01*
X0074544Y0035178D01*
X0074138Y0035243D01*
X0073734Y0035317D01*
X0073332Y0035401D01*
X0072932Y0035494D01*
X0072534Y0035597D01*
X0072139Y0035710D01*
X0071747Y0035832D01*
X0071358Y0035964D01*
X0070972Y0036105D01*
X0070589Y0036255D01*
X0070211Y0036415D01*
X0069836Y0036583D01*
X0069466Y0036761D01*
X0069100Y0036947D01*
X0068738Y0037143D01*
X0068382Y0037347D01*
X0068030Y0037559D01*
X0067684Y0037780D01*
X0067343Y0038009D01*
X0067008Y0038247D01*
X0066678Y0038492D01*
X0066355Y0038746D01*
X0066038Y0039007D01*
X0065727Y0039275D01*
X0065423Y0039551D01*
X0065125Y0039835D01*
X0064835Y0040125D01*
X0064551Y0040423D01*
X0064275Y0040727D01*
X0064007Y0041038D01*
X0063746Y0041355D01*
X0063492Y0041678D01*
X0063247Y0042008D01*
X0063009Y0042343D01*
X0062780Y0042684D01*
X0062559Y0043030D01*
X0062347Y0043382D01*
X0062143Y0043738D01*
X0061947Y0044100D01*
X0061761Y0044466D01*
X0061583Y0044836D01*
X0061415Y0045211D01*
X0061255Y0045589D01*
X0061105Y0045972D01*
X0060964Y0046358D01*
X0060832Y0046747D01*
X0060710Y0047139D01*
X0060597Y0047534D01*
X0060494Y0047932D01*
X0060401Y0048332D01*
X0060317Y0048734D01*
X0060243Y0049138D01*
X0060178Y0049544D01*
X0060124Y0049951D01*
X0060079Y0050359D01*
X0060045Y0050769D01*
X0060020Y0051179D01*
X0060005Y0051589D01*
X0060000Y0052000D01*
X0210547Y0116500D02*
X0210549Y0116608D01*
X0210555Y0116717D01*
X0210565Y0116825D01*
X0210579Y0116932D01*
X0210597Y0117039D01*
X0210618Y0117146D01*
X0210644Y0117251D01*
X0210674Y0117356D01*
X0210707Y0117459D01*
X0210744Y0117561D01*
X0210785Y0117661D01*
X0210829Y0117760D01*
X0210878Y0117858D01*
X0210929Y0117953D01*
X0210984Y0118046D01*
X0211043Y0118138D01*
X0211105Y0118227D01*
X0211170Y0118314D01*
X0211238Y0118398D01*
X0211309Y0118480D01*
X0211383Y0118559D01*
X0211460Y0118635D01*
X0211540Y0118709D01*
X0211623Y0118779D01*
X0211708Y0118847D01*
X0211795Y0118911D01*
X0211885Y0118972D01*
X0211977Y0119030D01*
X0212071Y0119084D01*
X0212167Y0119135D01*
X0212264Y0119182D01*
X0212364Y0119226D01*
X0212465Y0119266D01*
X0212567Y0119302D01*
X0212670Y0119334D01*
X0212775Y0119363D01*
X0212881Y0119387D01*
X0212987Y0119408D01*
X0213094Y0119425D01*
X0213202Y0119438D01*
X0213310Y0119447D01*
X0213419Y0119452D01*
X0213527Y0119453D01*
X0213636Y0119450D01*
X0213744Y0119443D01*
X0213852Y0119432D01*
X0213959Y0119417D01*
X0214066Y0119398D01*
X0214172Y0119375D01*
X0214277Y0119349D01*
X0214382Y0119318D01*
X0214484Y0119284D01*
X0214586Y0119246D01*
X0214686Y0119204D01*
X0214785Y0119159D01*
X0214882Y0119110D01*
X0214976Y0119057D01*
X0215069Y0119001D01*
X0215160Y0118942D01*
X0215249Y0118879D01*
X0215335Y0118814D01*
X0215419Y0118745D01*
X0215500Y0118673D01*
X0215578Y0118598D01*
X0215654Y0118520D01*
X0215727Y0118439D01*
X0215797Y0118356D01*
X0215863Y0118271D01*
X0215927Y0118183D01*
X0215987Y0118092D01*
X0216044Y0118000D01*
X0216097Y0117905D01*
X0216147Y0117809D01*
X0216193Y0117711D01*
X0216236Y0117611D01*
X0216275Y0117510D01*
X0216310Y0117407D01*
X0216342Y0117304D01*
X0216369Y0117199D01*
X0216393Y0117093D01*
X0216413Y0116986D01*
X0216429Y0116879D01*
X0216441Y0116771D01*
X0216449Y0116663D01*
X0216453Y0116554D01*
X0216453Y0116446D01*
X0216449Y0116337D01*
X0216441Y0116229D01*
X0216429Y0116121D01*
X0216413Y0116014D01*
X0216393Y0115907D01*
X0216369Y0115801D01*
X0216342Y0115696D01*
X0216310Y0115593D01*
X0216275Y0115490D01*
X0216236Y0115389D01*
X0216193Y0115289D01*
X0216147Y0115191D01*
X0216097Y0115095D01*
X0216044Y0115000D01*
X0215987Y0114908D01*
X0215927Y0114817D01*
X0215863Y0114729D01*
X0215797Y0114644D01*
X0215727Y0114561D01*
X0215654Y0114480D01*
X0215578Y0114402D01*
X0215500Y0114327D01*
X0215419Y0114255D01*
X0215335Y0114186D01*
X0215249Y0114121D01*
X0215160Y0114058D01*
X0215069Y0113999D01*
X0214977Y0113943D01*
X0214882Y0113890D01*
X0214785Y0113841D01*
X0214686Y0113796D01*
X0214586Y0113754D01*
X0214484Y0113716D01*
X0214382Y0113682D01*
X0214277Y0113651D01*
X0214172Y0113625D01*
X0214066Y0113602D01*
X0213959Y0113583D01*
X0213852Y0113568D01*
X0213744Y0113557D01*
X0213636Y0113550D01*
X0213527Y0113547D01*
X0213419Y0113548D01*
X0213310Y0113553D01*
X0213202Y0113562D01*
X0213094Y0113575D01*
X0212987Y0113592D01*
X0212881Y0113613D01*
X0212775Y0113637D01*
X0212670Y0113666D01*
X0212567Y0113698D01*
X0212465Y0113734D01*
X0212364Y0113774D01*
X0212264Y0113818D01*
X0212167Y0113865D01*
X0212071Y0113916D01*
X0211977Y0113970D01*
X0211885Y0114028D01*
X0211795Y0114089D01*
X0211708Y0114153D01*
X0211623Y0114221D01*
X0211540Y0114291D01*
X0211460Y0114365D01*
X0211383Y0114441D01*
X0211309Y0114520D01*
X0211238Y0114602D01*
X0211170Y0114686D01*
X0211105Y0114773D01*
X0211043Y0114862D01*
X0210984Y0114954D01*
X0210929Y0115047D01*
X0210878Y0115142D01*
X0210829Y0115240D01*
X0210785Y0115339D01*
X0210744Y0115439D01*
X0210707Y0115541D01*
X0210674Y0115644D01*
X0210644Y0115749D01*
X0210618Y0115854D01*
X0210597Y0115961D01*
X0210579Y0116068D01*
X0210565Y0116175D01*
X0210555Y0116283D01*
X0210549Y0116392D01*
X0210547Y0116500D01*
M02*
