G75*
%MOIN*%
%OFA0B0*%
%FSLAX25Y25*%
%IPPOS*%
%LPD*%
%AMOC8*
5,1,8,0,0,1.08239X$1,22.5*
%
%ADD10C,0.00600*%
%ADD11C,0.01100*%
%ADD12C,0.00500*%
D10*
X0067000Y0051000D02*
X0067000Y0101000D01*
X0255000Y0101000D01*
X0255000Y0051000D01*
X0067000Y0051000D01*
D11*
X0135009Y0078955D02*
X0138946Y0078955D01*
X0136977Y0078955D02*
X0136977Y0073050D01*
X0141454Y0073050D02*
X0141454Y0078955D01*
X0141454Y0076003D02*
X0145391Y0076003D01*
X0147900Y0076003D02*
X0149868Y0076003D01*
X0147900Y0076003D02*
X0147900Y0074034D01*
X0148884Y0073050D01*
X0150852Y0073050D01*
X0151837Y0074034D01*
X0151837Y0077971D01*
X0150852Y0078955D01*
X0148884Y0078955D01*
X0147900Y0077971D01*
X0145391Y0078955D02*
X0145391Y0073050D01*
X0154165Y0073050D02*
X0156134Y0073050D01*
X0155149Y0073050D02*
X0155149Y0078955D01*
X0154165Y0078955D02*
X0156134Y0078955D01*
X0162579Y0078955D02*
X0162579Y0073050D01*
X0158642Y0073050D01*
X0165088Y0073050D02*
X0168040Y0076003D01*
X0169025Y0075018D02*
X0165088Y0078955D01*
X0169025Y0078955D02*
X0169025Y0073050D01*
X0171533Y0074034D02*
X0172518Y0073050D01*
X0174486Y0073050D01*
X0175470Y0074034D01*
X0175470Y0077971D01*
X0174486Y0078955D01*
X0172518Y0078955D01*
X0171533Y0077971D01*
X0177979Y0076987D02*
X0177979Y0073050D01*
X0181916Y0073050D02*
X0181916Y0076987D01*
X0179947Y0078955D01*
X0177979Y0076987D01*
X0177979Y0076003D02*
X0181916Y0076003D01*
X0184424Y0076987D02*
X0185409Y0076003D01*
X0188361Y0076003D01*
X0185409Y0076003D02*
X0184424Y0075018D01*
X0184424Y0074034D01*
X0185409Y0073050D01*
X0188361Y0073050D01*
X0188361Y0078955D01*
X0185409Y0078955D01*
X0184424Y0077971D01*
X0184424Y0076987D01*
D12*
X0195055Y0110250D02*
X0196407Y0110250D01*
X0196857Y0110700D01*
X0196857Y0111601D01*
X0196407Y0112052D01*
X0195055Y0112052D01*
X0195055Y0112952D02*
X0195055Y0110250D01*
X0198002Y0111151D02*
X0199803Y0111151D01*
X0199803Y0111601D02*
X0199353Y0112052D01*
X0198452Y0112052D01*
X0198002Y0111601D01*
X0198002Y0111151D01*
X0198452Y0110250D02*
X0199353Y0110250D01*
X0199803Y0110700D01*
X0199803Y0111601D01*
X0200948Y0111601D02*
X0200948Y0112502D01*
X0201399Y0112952D01*
X0202750Y0112952D01*
X0202750Y0110250D01*
X0202750Y0111151D02*
X0201399Y0111151D01*
X0200948Y0111601D01*
X0201849Y0111151D02*
X0200948Y0110250D01*
X0230055Y0110250D02*
X0231407Y0110250D01*
X0231857Y0110700D01*
X0231857Y0111601D01*
X0231407Y0112052D01*
X0230055Y0112052D01*
X0230055Y0112952D02*
X0230055Y0110250D01*
X0233002Y0111151D02*
X0234803Y0111151D01*
X0234803Y0111601D02*
X0234353Y0112052D01*
X0233452Y0112052D01*
X0233002Y0111601D01*
X0233002Y0111151D01*
X0233452Y0110250D02*
X0234353Y0110250D01*
X0234803Y0110700D01*
X0234803Y0111601D01*
X0235948Y0111601D02*
X0235948Y0112502D01*
X0236399Y0112952D01*
X0237750Y0112952D01*
X0237750Y0110250D01*
X0237750Y0111151D02*
X0236399Y0111151D01*
X0235948Y0111601D01*
X0236849Y0111151D02*
X0235948Y0110250D01*
X0167750Y0110250D02*
X0167750Y0112952D01*
X0166399Y0112952D01*
X0165948Y0112502D01*
X0165948Y0111601D01*
X0166399Y0111151D01*
X0167750Y0111151D01*
X0166849Y0111151D02*
X0165948Y0110250D01*
X0164803Y0110700D02*
X0164803Y0111601D01*
X0164353Y0112052D01*
X0163452Y0112052D01*
X0163002Y0111601D01*
X0163002Y0111151D01*
X0164803Y0111151D01*
X0164803Y0110700D02*
X0164353Y0110250D01*
X0163452Y0110250D01*
X0161857Y0110700D02*
X0161857Y0111601D01*
X0161407Y0112052D01*
X0160055Y0112052D01*
X0160055Y0112952D02*
X0160055Y0110250D01*
X0161407Y0110250D01*
X0161857Y0110700D01*
X0132764Y0111246D02*
X0131413Y0111262D01*
X0130968Y0111718D01*
X0130979Y0112619D01*
X0131435Y0113064D01*
X0132786Y0113047D01*
X0132753Y0110345D01*
X0131863Y0111257D02*
X0130952Y0110367D01*
X0129812Y0110831D02*
X0129823Y0111732D01*
X0129378Y0112188D01*
X0128478Y0112199D01*
X0128022Y0111754D01*
X0128016Y0111304D01*
X0129818Y0111282D01*
X0129812Y0110831D02*
X0129356Y0110387D01*
X0128456Y0110398D01*
X0126866Y0110867D02*
X0126877Y0111768D01*
X0126432Y0112224D01*
X0125081Y0112241D01*
X0125092Y0113141D02*
X0125059Y0110439D01*
X0126410Y0110423D01*
X0126866Y0110867D01*
X0097750Y0110250D02*
X0096849Y0111151D01*
X0095948Y0110250D01*
X0095948Y0112952D01*
X0094803Y0112952D02*
X0094803Y0110250D01*
X0094803Y0111601D02*
X0094353Y0112052D01*
X0093452Y0112052D01*
X0093002Y0111601D01*
X0093002Y0110250D01*
X0091857Y0110250D02*
X0090956Y0110250D01*
X0091407Y0110250D02*
X0091407Y0112052D01*
X0091857Y0112052D01*
X0091407Y0112952D02*
X0091407Y0113403D01*
X0089893Y0112052D02*
X0088992Y0112052D01*
X0089442Y0112502D02*
X0089442Y0110700D01*
X0088992Y0110250D01*
X0087928Y0110700D02*
X0087928Y0111601D01*
X0087478Y0112052D01*
X0086577Y0112052D01*
X0086127Y0111601D01*
X0086127Y0111151D01*
X0087928Y0111151D01*
X0087928Y0110700D02*
X0087478Y0110250D01*
X0086577Y0110250D01*
X0097750Y0110250D02*
X0097750Y0112952D01*
M02*
