%
M48
M72
T01C0.0320
T02C0.0400
T03C0.0591
%
T01
X23400Y6600
X25400Y7100
X23400Y7600
X25400Y8100
X23400Y8600
X23600Y11650
X22600Y11650
X20100Y11650
X19100Y11650
X16600Y11650
X15600Y11650
X13100Y11656
X12100Y11644
X9600Y11650
X8600Y11650
T02
X13600Y9000
X14600Y9000
X15600Y9000
X16600Y9000
X17600Y9000
X18600Y9000
X14600Y7400
X13600Y7400
T03
X7500Y4500
X10850Y11650
X21350Y11650
X24700Y4500
M30
